<?xml version="1.0" encoding="utf-8"?>
<!-- Generator: Adobe Illustrator 21.0.2, SVG Export Plug-In . SVG Version: 6.00 Build 0)  -->
<svg version="1.1" id="Livello_1" xmlns="http://www.w3.org/2000/svg" xmlns:xlink="http://www.w3.org/1999/xlink" x="0px" y="0px"
	 viewBox="0 0 629 500.4" style="enable-background:new 0 0 629 500.4;" xml:space="preserve">
<style type="text/css">
	.st0{opacity:0.3;fill:#E2E2E2;}
	.st1{opacity:0.3;fill:#73D7FF;}
	.st2{opacity:0.32;fill:#73D7FF;}
	.st3{fill:#003575;}
	.st4{fill:#73D7FF;}
	.st5{fill:#BFDEFF;}
	.st6{fill:#FFFFFF;}
	.st7{fill:#1E3B6E;}
	.st8{fill:#80CBED;}
	.st9{fill:none;stroke:#295082;stroke-width:2;stroke-miterlimit:10;}
	.st10{fill:none;stroke:#295082;stroke-width:4;stroke-miterlimit:10;}
	.st11{fill:#FFFFFF;stroke:#295082;stroke-width:4;stroke-miterlimit:10;}
</style>
<path class="st0" d="M6.1,485.6c0-169.7,137.5-307.2,307.2-307.2s307.2,137.5,307.2,307.2"/>
<path class="st1" d="M44.9,485.6c0-145,120.2-262.5,268.4-262.5s268.4,117.5,268.4,262.5"/>
<path class="st2" d="M98.1,485.6c0-119.8,96.3-216.9,215.2-216.9s215.2,97.1,215.2,216.9"/>
<path class="st3" d="M618.7,491.5H7.8c-1,0-1.8-0.8-1.8-1.8v-2.4c0-1,0.8-1.8,1.8-1.8h610.9c1,0,1.8,0.8,1.8,1.8v2.4
	C620.4,490.7,619.6,491.5,618.7,491.5z"/>
<g>
	<g>
		<g>
			<circle class="st4" cx="249.8" cy="62.7" r="10.9"/>
		</g>
	</g>
	<g>
		<g>
			<g>
				<g>
					<path class="st3" d="M195.3,120.1c-3.5,0-6.3-2.8-6.3-6.3c0-3.5,2.8-6.3,6.3-6.3h33.2c1.7,0,3.1-1.4,3.1-3.1
						c0-1.7-1.4-3.1-3.1-3.1h-14.2c-3.5,0-6.3-2.8-6.3-6.3V91c0-0.4-0.3-0.7-0.7-0.8C196.8,89,189,80.3,189,69.8V53.2
						c0-0.9,0.7-1.6,1.6-1.6h7.1c0.4,0,0.8-0.3,0.8-0.8c0-0.9,0.7-1.6,1.6-1.6c0.9,0,1.6,0.7,1.6,1.6v4.7c0,0.9-0.7,1.6-1.6,1.6
						c-0.9,0-1.6-0.7-1.6-1.6c0-0.4-0.3-0.8-0.8-0.8h-4.7c-0.4,0-0.8,0.3-0.8,0.8v14.2c0,9.6,7.8,17.4,17.4,17.4
						c9.6,0,17.4-7.8,17.4-17.4V55.6c0-0.4-0.3-0.8-0.8-0.8h-4.7c-0.4,0-0.8,0.3-0.8,0.8c0,0.9-0.7,1.6-1.6,1.6
						c-0.9,0-1.6-0.7-1.6-1.6v-4.7c0-0.9,0.7-1.6,1.6-1.6c0.9,0,1.6,0.7,1.6,1.6c0,0.4,0.3,0.8,0.8,0.8h7.1c0.9,0,1.6,0.7,1.6,1.6
						v16.6c0,10.5-7.9,19.3-18.3,20.4c-0.4,0-0.7,0.4-0.7,0.8v3.9c0,1.7,1.4,3.1,3.1,3.1h14.2c3.5,0,6.3,2.8,6.3,6.3
						c0,3.5-2.8,6.3-6.3,6.3h-33.2c-1.7,0-3.1,1.4-3.1,3.1c0,1.7,1.4,3.1,3.1,3.1H245c1.7,0,3.1-1.4,3.1-3.1V76.9c0,0,0-0.1,0-0.1
						c0-0.4-0.2-0.8-0.6-0.8c-6.5-1.1-11.2-6.7-11.2-13.2c0-7.4,6-13.4,13.4-13.4c7.4,0,13.4,6,13.4,13.4c0,6.6-4.7,12.2-11.2,13.2
						c-0.4,0.1-0.7,0.4-0.6,0.8c0,0,0,0.1,0,0.1v36.9c0,3.5-2.8,6.3-6.3,6.3H195.3z M249.8,52.4c-5.7,0-10.3,4.6-10.3,10.3
						s4.6,10.3,10.3,10.3c5.7,0,10.3-4.6,10.3-10.3S255.4,52.4,249.8,52.4z"/>
				</g>
			</g>
		</g>
		<g>
			<g>
				<g>
					<rect x="248.2" y="61.1" class="st3" width="3.2" height="3.2"/>
				</g>
			</g>
		</g>
	</g>
</g>
<g>
	<g>
		<path class="st5" d="M560.2,169.7l-4.9-8.5h-12.6v-32.1h70.5v32.1h-48L560.2,169.7z M546,157.8h11.2l3,5.1l3-5.1h46.6v-25.3H546
			V157.8z"/>
	</g>
	<g>
		<path class="st5" d="M557.1,143.6h-14.5v-14.5h14.5V143.6z M546,140.2h7.7v-7.7H546V140.2z"/>
	</g>
	<g>
		<rect x="563.1" y="137.2" class="st5" width="34.9" height="3.4"/>
	</g>
	<g>
		<rect x="563.1" y="142.6" class="st5" width="34.9" height="3.4"/>
	</g>
	<g>
		<rect x="563.1" y="147.9" class="st5" width="34.9" height="3.4"/>
	</g>
</g>
<g>
	<g>
		<path class="st5" d="M364.8,85.8l-1-0.1c-2.6-0.3-5.2-1-7.6-2.2l-1-0.5l0.2-4.1l-4,1.3l-0.7-0.7c-1.8-1.8-3.3-3.9-4.3-6.3l-0.5-1
			l3.1-3.4l-4.5-1.9l-0.1-1c0-0.5-0.1-1.1-0.1-1.6c0-1.9,0.3-3.8,0.8-5.6l0.3-1.1l5.2-0.6l-2.5-4.8l0.6-0.9c1.4-1.9,3.2-3.5,5.1-4.8
			l0.9-0.6l4.7,3l1.2-5.4l1.1-0.2c2.3-0.4,4.6-0.5,7-0.2l1.1,0.1l1.6,5.2l4.2-3.2l1,0.6c2.1,1.2,4,2.8,5.6,4.6L383,51l-1.9,4.6
			l4.8,0.2l0.4,1.1c0.9,2.4,1.3,4.8,1.3,7.4l0,1.1l-0.9,0.5l-3,1.5l3.1,2.8l-0.4,1c-0.9,2.5-2.1,4.8-3.8,6.8l-0.7,0.8L378,78
			l0.5,3.8l-0.9,0.6c-2.3,1.5-4.7,2.5-7.4,3l-1,0.2l-2.3-3L364.8,85.8z M358.8,80.9c1.4,0.6,2.9,1,4.4,1.3l3.5-5.6l3.9,5.2
			c1.5-0.4,2.9-1,4.3-1.7l-0.9-6.5l6.5,1.5c0.9-1.2,1.6-2.5,2.2-3.9l-5-4.6l6.4-3.3c-0.1-1.4-0.3-2.8-0.7-4.2l-7.4-0.3l3-7.1
			c-0.9-1-1.9-1.8-3-2.5l-6.3,4.8l-2.4-7.8c-1.3-0.1-2.5-0.1-3.8,0.1l-1.8,8l-6.8-4.4c-1,0.8-1.9,1.6-2.8,2.6l3.7,7.1l-7.7,1
			c-0.3,1.2-0.4,2.4-0.4,3.7c0,0.1,0,0.2,0,0.3l7,2.9l-4.9,5.3c0.7,1.3,1.5,2.5,2.5,3.5l6.7-2.1L358.8,80.9z"/>
	</g>
	<g>
		<path class="st5" d="M366,71.4c-4,0-7.2-3.2-7.2-7.2c0-4,3.2-7.2,7.2-7.2s7.2,3.2,7.2,7.2C373.1,68.2,369.9,71.4,366,71.4z
			 M366,60.4c-2.1,0-3.8,1.7-3.8,3.8c0,2.1,1.7,3.8,3.8,3.8s3.8-1.7,3.8-3.8C369.8,62.1,368.1,60.4,366,60.4z"/>
	</g>
</g>
<g>
	<g>
		<g>
			<g>
				<g>
					<g>
						<g>
							<path class="st3" d="M317.6,138.9h-11.1c-0.9,0-1.7-0.8-1.7-1.7c0-0.9,0.8-1.7,1.7-1.7h11.1c0.9,0,1.7,0.8,1.7,1.7
								C319.3,138.1,318.6,138.9,317.6,138.9z"/>
						</g>
					</g>
				</g>
			</g>
		</g>
		<g>
			<g>
				<g>
					<g>
						<g>
							<path class="st3" d="M312.1,144.5c-0.9,0-1.7-0.8-1.7-1.7v-11.1c0-0.9,0.8-1.7,1.7-1.7c0.9,0,1.7,0.8,1.7,1.7v11.1
								C313.7,143.7,313,144.5,312.1,144.5z"/>
						</g>
					</g>
				</g>
			</g>
		</g>
	</g>
</g>
<g>
	<g>
		<g>
			<g>
				<g>
					<g>
						<g>
							<path class="st3" d="M178.6,182.8h-11.1c-0.9,0-1.7-0.8-1.7-1.7c0-0.9,0.8-1.7,1.7-1.7h11.1c0.9,0,1.7,0.8,1.7,1.7
								C180.3,182,179.5,182.8,178.6,182.8z"/>
						</g>
					</g>
				</g>
			</g>
		</g>
		<g>
			<g>
				<g>
					<g>
						<g>
							<path class="st3" d="M173,188.4c-0.9,0-1.7-0.8-1.7-1.7v-11.1c0-0.9,0.8-1.7,1.7-1.7c0.9,0,1.7,0.8,1.7,1.7v11.1
								C174.7,187.6,174,188.4,173,188.4z"/>
						</g>
					</g>
				</g>
			</g>
		</g>
	</g>
</g>
<g>
	<g>
		<g>
			<g>
				<g>
					<g>
						<g>
							<path class="st3" d="M240.1,464.8h-11.1c-0.9,0-1.7-0.8-1.7-1.7c0-0.9,0.8-1.7,1.7-1.7h11.1c0.9,0,1.7,0.8,1.7,1.7
								C241.8,464.1,241,464.8,240.1,464.8z"/>
						</g>
					</g>
				</g>
			</g>
		</g>
		<g>
			<g>
				<g>
					<g>
						<g>
							<path class="st3" d="M234.5,470.4c-0.9,0-1.7-0.8-1.7-1.7v-11.1c0-0.9,0.8-1.7,1.7-1.7c0.9,0,1.7,0.8,1.7,1.7v11.1
								C236.2,469.6,235.4,470.4,234.5,470.4z"/>
						</g>
					</g>
				</g>
			</g>
		</g>
	</g>
</g>
<g>
	<g>
		<g>
			<g>
				<g>
					<g>
						<g>
							<path class="st3" d="M528,292.6h-11.1c-0.9,0-1.7-0.8-1.7-1.7c0-0.9,0.8-1.7,1.7-1.7H528c0.9,0,1.7,0.8,1.7,1.7
								C529.7,291.8,528.9,292.6,528,292.6z"/>
						</g>
					</g>
				</g>
			</g>
		</g>
		<g>
			<g>
				<g>
					<g>
						<g>
							<path class="st3" d="M522.4,298.2c-0.9,0-1.7-0.8-1.7-1.7v-11.1c0-0.9,0.8-1.7,1.7-1.7c0.9,0,1.7,0.8,1.7,1.7v11.1
								C524.1,297.4,523.3,298.2,522.4,298.2z"/>
						</g>
					</g>
				</g>
			</g>
		</g>
	</g>
</g>
<g>
	<path class="st6" d="M216.8,255.7c-6.4,0-11.6-5.2-11.6-11.6s5.2-11.6,11.6-11.6s11.6,5.2,11.6,11.6S223.2,255.7,216.8,255.7z"/>
	<path class="st3" d="M216.8,233.5c5.8,0,10.6,4.8,10.6,10.6s-4.8,10.6-10.6,10.6c-5.8,0-10.6-4.8-10.6-10.6S211,233.5,216.8,233.5
		 M216.8,231.5c-7,0-12.6,5.6-12.6,12.6c0,7,5.6,12.6,12.6,12.6c7,0,12.6-5.6,12.6-12.6C229.4,237.1,223.8,231.5,216.8,231.5
		L216.8,231.5z"/>
</g>
<g>
	<path class="st6" d="M216.8,255.2c-6.1,0-11.1-5-11.1-11.1c0-6.1,5-11.1,11.1-11.1c6.1,0,11.1,5,11.1,11.1
		C227.9,250.2,222.9,255.2,216.8,255.2z"/>
	<path class="st3" d="M216.8,234.5c5.3,0,9.6,4.3,9.6,9.6s-4.3,9.6-9.6,9.6c-5.3,0-9.6-4.3-9.6-9.6S211.5,234.5,216.8,234.5
		 M216.8,231.5c-7,0-12.6,5.6-12.6,12.6s5.6,12.6,12.6,12.6s12.6-5.6,12.6-12.6S223.8,231.5,216.8,231.5L216.8,231.5z"/>
</g>
<g>
	<path class="st6" d="M492.5,444c-6.1,0-11.1-5-11.1-11.1c0-6.1,5-11.1,11.1-11.1c6.1,0,11.1,5,11.1,11.1
		C503.6,439,498.6,444,492.5,444z"/>
	<path class="st3" d="M492.5,423.2c5.3,0,9.6,4.3,9.6,9.6s-4.3,9.6-9.6,9.6s-9.6-4.3-9.6-9.6S487.2,423.2,492.5,423.2 M492.5,420.2
		c-7,0-12.6,5.6-12.6,12.6c0,7,5.6,12.6,12.6,12.6c7,0,12.6-5.6,12.6-12.6C505.1,425.9,499.4,420.2,492.5,420.2L492.5,420.2z"/>
</g>
<g>
	<path class="st6" d="M106.4,465.5c-6.1,0-11.1-5-11.1-11.1s5-11.1,11.1-11.1c6.1,0,11.1,5,11.1,11.1S112.6,465.5,106.4,465.5z"/>
	<path class="st3" d="M106.4,444.8c5.3,0,9.6,4.3,9.6,9.6s-4.3,9.6-9.6,9.6s-9.6-4.3-9.6-9.6S101.1,444.8,106.4,444.8 M106.4,441.8
		c-7,0-12.6,5.6-12.6,12.6s5.6,12.6,12.6,12.6s12.6-5.6,12.6-12.6S113.4,441.8,106.4,441.8L106.4,441.8z"/>
</g>
<g>
	<path class="st5" d="M102.9,88.3c-5.1,0-9.3-4.2-9.3-9.3c0-5.1,4.2-9.3,9.3-9.3c5.1,0,9.3,4.2,9.3,9.3
		C112.2,84.1,108,88.3,102.9,88.3z M102.9,73.1c-3.3,0-5.9,2.7-5.9,5.9c0,3.3,2.7,5.9,5.9,5.9c3.3,0,5.9-2.7,5.9-5.9
		C108.8,75.7,106.2,73.1,102.9,73.1z"/>
</g>
<g>
	<path class="st5" d="M59.9,287.2c-5.1,0-9.3-4.2-9.3-9.3c0-5.1,4.2-9.3,9.3-9.3c5.1,0,9.3,4.2,9.3,9.3
		C69.2,283.1,65,287.2,59.9,287.2z M59.9,272c-3.3,0-5.9,2.7-5.9,5.9s2.7,5.9,5.9,5.9c3.3,0,5.9-2.7,5.9-5.9S63.2,272,59.9,272z"/>
</g>
<g>
	<path class="st5" d="M542.6,236c-5.1,0-9.3-4.2-9.3-9.3s4.2-9.3,9.3-9.3s9.3,4.2,9.3,9.3S547.7,236,542.6,236z M542.6,220.8
		c-3.3,0-5.9,2.7-5.9,5.9s2.7,5.9,5.9,5.9s5.9-2.7,5.9-5.9S545.9,220.8,542.6,220.8z"/>
</g>
<g>
	<g>
		<g>
			<g>
				<g>
					<g>
						<g>
							<path class="st3" d="M65.5,365.1H54.3c-0.9,0-1.7-0.8-1.7-1.7c0-0.9,0.8-1.7,1.7-1.7h11.1c0.9,0,1.7,0.8,1.7,1.7
								C67.2,364.3,66.4,365.1,65.5,365.1z"/>
						</g>
					</g>
				</g>
			</g>
		</g>
		<g>
			<g>
				<g>
					<g>
						<g>
							<path class="st3" d="M59.9,370.7c-0.9,0-1.7-0.8-1.7-1.7v-11.1c0-0.9,0.8-1.7,1.7-1.7c0.9,0,1.7,0.8,1.7,1.7V369
								C61.6,369.9,60.8,370.7,59.9,370.7z"/>
						</g>
					</g>
				</g>
			</g>
		</g>
	</g>
</g>
<g>
	<g>
		<polygon class="st7" points="113.3,189.6 88.3,165.5 97.9,155.8 100.1,158 92.8,165.4 113,184.9 119.4,176.9 121.8,178.8 		"/>
	</g>
	<g>
		<path class="st7" d="M70.7,191.1c-1.2,0-2.4-0.4-3.4-1.2c-1.7-1.4-2.9-4.2-1.6-7c0.7-1.6,4.6-5.7,6.6-7.5c6.2-5.9,7.9-6,8.5-6
			c2.2,0,6.1-0.5,7.6-0.7l0.4,0c0.3,0,1-0.6,1.4-1.1c0.6-0.7,1.6-0.7,2.2-0.2c0.7,0.6,0.7,1.6,0.2,2.2c-0.3,0.3-1.7,1.9-3.4,2.1
			l-0.4,0c-1.7,0.2-5.5,0.7-7.9,0.8c-2.2,0.5-11.5,10-12.3,11.6c-0.7,1.5,0.2,2.9,0.8,3.4c1.5,1.3,3.6-0.3,4-0.6
			c1.4-1.2,8-6.6,9.6-7.9c0.7-0.6,1.7-0.5,2.2,0.2c0.6,0.7,0.5,1.7-0.2,2.2c-1.6,1.3-8.2,6.7-9.6,7.9
			C73.9,190.4,72.3,191.1,70.7,191.1z"/>
	</g>
	<g>
		<path class="st7" d="M103.1,199.9c-0.4,0-0.9-0.2-1.2-0.5c-0.6-0.7-0.5-1.7,0.2-2.2c0.9-0.8,3.3-3,4.2-4.1c0.8-1,1.1-2.9,1.4-4.5
			c0.2-1,0.3-1.9,0.6-2.5c0.3-0.8,1.3-1.2,2.1-0.8c0.8,0.3,1.2,1.3,0.8,2.1c-0.1,0.3-0.3,1.1-0.4,1.8c-0.3,1.8-0.8,4.1-2,5.8
			c-1.2,1.6-4.3,4.3-4.6,4.6C103.9,199.8,103.5,199.9,103.1,199.9z"/>
	</g>
	<g>
		<path class="st7" d="M86,224.4c-1.7,0-3.5-0.5-4.8-1.5c-0.1,0-0.4-0.2-0.6-0.3c-0.6-0.4-1-0.6-1.3-0.8c-0.7-0.5-0.8-1.5-0.2-2.2
			c0.5-0.7,1.5-0.8,2.2-0.2c0.1,0.1,0.7,0.4,1,0.6c0.5,0.3,0.7,0.4,0.9,0.6c1.4,1,3.8,1.2,5.1,0.3c0.4-0.3,1-0.9,0.6-2.3
			c-0.2-0.6,0-1.2,0.4-1.6c0.4-0.4,1-0.5,1.6-0.4c1.9,0.7,2.5,0.5,3.1,0c0.7-0.6,1.2-1.9,0.8-2.5c-0.3-0.5-0.3-1.2,0.1-1.8
			c0.4-0.5,1-0.8,1.7-0.6c1.7,0.4,2.4-0.2,2.9-0.7l0.1-0.1c0.7-0.7,1-1.9,0.2-2.9c0,0,0,0,0,0c-0.5-0.7-0.4-1.7,0.2-2.2
			c0.4-0.3,1-0.4,1.4-0.3c0.2-0.1,0.4-0.4,0.5-0.5c0.3-0.4,0.6-1.1,0.5-1.6c-0.1-1.2-0.8-2.9-1.6-3.9c-1.1-1.3-12.7-10.7-19.7-16.4
			c-0.7-0.5-0.8-1.5-0.2-2.2c0.5-0.7,1.5-0.8,2.2-0.2c1.9,1.5,18.5,14.9,20.1,16.8c1.3,1.5,2.3,3.8,2.4,5.7c0.1,1.4-0.5,2.6-1,3.4
			c-0.2,0.3-0.7,1-1.4,1.5c0.4,1.8-0.1,3.8-1.5,5.1l-0.1,0.1c-0.5,0.5-1.6,1.5-3.5,1.6c-0.1,1.5-0.9,3-1.9,3.9
			c-1.3,1.2-2.7,1.4-4,1.3c-0.2,1.3-0.9,2.5-2,3.3C88.8,224,87.4,224.4,86,224.4z"/>
	</g>
	<g>
		<path class="st7" d="M89.5,219.5l-4.9-4.1c-0.7-0.6-0.8-1.6-0.2-2.2c0.6-0.7,1.6-0.8,2.2-0.2l4.9,4.1L89.5,219.5z"/>
	</g>
	<g>
		<path class="st8" d="M82.7,213.2c-0.4,0-0.7-0.1-1-0.4c0,0,0,0-0.1,0c-0.2-0.1-0.5-0.3-0.6-0.6c-0.4-0.7-0.3-1.5,0.3-2
			c0.7-0.6,1.5-0.5,2.4,0.2c0.7,0.6,0.8,1.6,0.2,2.2C83.6,213,83.1,213.2,82.7,213.2z"/>
	</g>
	<g>
		<path class="st7" d="M95.4,214.6l-6.1-5c-0.7-0.6-0.8-1.5-0.2-2.2c0.6-0.7,1.5-0.8,2.2-0.2l6.1,5L95.4,214.6z"/>
	</g>
	<g>
		<path class="st8" d="M87.5,207.7c0,0-0.1,0-0.1,0c-0.3,0-0.6-0.1-0.9-0.4l-0.2-0.1c0,0,0,0,0,0l-0.1,0l0,0
			c-0.8-0.7-0.6-1.5-0.5-1.8c0.2-0.6,0.8-1,1.5-1c0.4,0,0.7,0.2,1,0.4l0,0l0.1,0.1c0.4,0.3,0.7,0.8,0.7,1.3
			C89.1,207,88.4,207.7,87.5,207.7z"/>
	</g>
	<g>
		<path class="st7" d="M101.1,208.9c-0.3,0-0.7-0.1-1-0.3l-7.4-5.9c-0.7-0.5-0.8-1.5-0.3-2.2c0.5-0.7,1.5-0.8,2.2-0.3l7.4,5.9
			c0.7,0.5,0.8,1.5,0.3,2.2C102,208.7,101.6,208.9,101.1,208.9z"/>
	</g>
	<g>
		<polygon class="st7" points="50.1,195.6 40.3,189.3 42,186.7 49.3,191.4 65.2,170.7 57.5,164.3 59.5,161.9 69.6,170.2 		"/>
	</g>
	<g>
		<path class="st7" d="M73,177.5c-0.3,0-0.7-0.1-1-0.3c-0.9-0.7-4.2-1.3-6.8-1.6c-0.9-0.1-1.5-0.8-1.4-1.7c0.1-0.9,0.8-1.5,1.7-1.4
			c1.1,0.1,6.4,0.6,8.5,2.2c0.7,0.5,0.8,1.5,0.2,2.2C73.9,177.3,73.4,177.5,73,177.5z"/>
	</g>
	<g>
		<path class="st7" d="M54.2,195.1c-0.7,0-1.3-0.4-1.5-1.1l-1.4-4.1c-0.3-0.8,0.2-1.7,1-2c0.8-0.3,1.7,0.2,2,1l1.4,4.1
			c0.3,0.8-0.2,1.7-1,2C54.6,195,54.4,195.1,54.2,195.1z"/>
	</g>
	<g>
		<path class="st7" d="M74.2,223.7c-1.4,0-2.6-0.5-3.6-1.5c-1-1-1.5-2.2-1.5-3.6c0-1.4,0.5-2.6,1.5-3.6l2-2c1-1,2.2-1.5,3.6-1.5
			c1.4,0,2.7,0.5,3.6,1.5c1,1,1.5,2.2,1.5,3.6c0,1.4-0.5,2.6-1.5,3.6l-2,2C76.9,223.2,75.6,223.7,74.2,223.7z M76.2,214.6
			c-0.5,0-1,0.2-1.4,0.6l-2,2c-0.4,0.4-0.6,0.9-0.6,1.4c0,0.5,0.2,1,0.6,1.4c0.4,0.4,0.9,0.6,1.4,0.6c0.5,0,1-0.2,1.4-0.6l2-2
			c0.4-0.4,0.6-0.9,0.6-1.4c0-0.5-0.2-1-0.6-1.4C77.2,214.8,76.7,214.6,76.2,214.6z"/>
	</g>
	<g>
		<path class="st7" d="M68,217.8c-1.4,0-2.6-0.5-3.6-1.5c-1-1-1.5-2.2-1.5-3.6c0-1.4,0.5-2.6,1.5-3.6l2-2c1-1,2.2-1.5,3.6-1.5
			c1.4,0,2.7,0.5,3.6,1.5c1,1,1.5,2.2,1.5,3.6c0,1.4-0.5,2.6-1.5,3.6l-2,2C70.7,217.3,69.4,217.8,68,217.8z M70,208.8
			c-0.5,0-1,0.2-1.4,0.6l-2,2c-0.4,0.4-0.6,0.9-0.6,1.4c0,0.5,0.2,1,0.6,1.4c0.4,0.4,0.9,0.6,1.4,0.6c0.5,0,1-0.2,1.4-0.6l2-2
			c0.4-0.4,0.6-0.9,0.6-1.4c0-0.5-0.2-1-0.6-1.4C71,209,70.5,208.8,70,208.8z"/>
	</g>
	<g>
		<path class="st7" d="M62.7,212.5c-1.4,0-2.6-0.5-3.6-1.5c-1-1-1.5-2.2-1.5-3.6c0-1.4,0.5-2.6,1.5-3.6l2-2c1-1,2.2-1.5,3.6-1.5
			c1.4,0,2.7,0.5,3.6,1.5c1,1,1.5,2.2,1.5,3.6c0,1.4-0.5,2.6-1.5,3.6l-2,2C65.4,212,64.1,212.5,62.7,212.5z M64.7,203.5
			c-0.5,0-1,0.2-1.4,0.6l-2,2c-0.4,0.4-0.6,0.9-0.6,1.4c0,0.5,0.2,1,0.6,1.4c0.4,0.4,0.9,0.6,1.4,0.6c0.5,0,1-0.2,1.4-0.6l2-2
			c0.4-0.4,0.6-0.9,0.6-1.4c0-0.5-0.2-1-0.6-1.4C65.8,203.7,65.3,203.5,64.7,203.5z"/>
	</g>
	<g>
		<path class="st7" d="M57.2,206.6c-1.4,0-2.6-0.5-3.6-1.5c-1-1-1.5-2.2-1.5-3.6c0-1.4,0.5-2.6,1.5-3.6l2-2c1-1,2.2-1.5,3.6-1.5
			c1.4,0,2.7,0.5,3.6,1.5c1,1,1.5,2.2,1.5,3.6c0,1.4-0.5,2.6-1.5,3.6l-2,2C59.8,206.1,58.5,206.6,57.2,206.6z M59.2,197.6
			c-0.5,0-1,0.2-1.4,0.6l-2,2c-0.4,0.4-0.6,0.9-0.6,1.4c0,0.5,0.2,1,0.6,1.4c0.4,0.4,0.9,0.6,1.4,0.6c0.5,0,1-0.2,1.4-0.6l2-2
			c0.4-0.4,0.6-0.9,0.6-1.4c0-0.5-0.2-1-0.6-1.4C60.2,197.8,59.7,197.6,59.2,197.6z"/>
	</g>
</g>
<g>
	<g>
		<path class="st6" d="M444.8,92.4c-2.3,0.3-5.2,1.9-7.3,4c-3.9,3.9-5.2,9.3-3.9,14.2l-5.9,5.9v4.5l-0.6,0.8h-4.5l-1.8,2.2v4.5
			l-1.1,0.3h-4.5l-3.7,4.2l4.5,5h7.5l17.6-17.9c2.2,1.2,4.7,1.6,7,1.6c8.2,0,15.6-10.3,13.2-19.6C458.8,92.9,450.5,90.9,444.8,92.4z
			"/>
	</g>
	<g>
		<path class="st7" d="M423.9,139.1h-8.5l-5.5-6.1l4.7-5.4l5,0v-4l2.5-2.9l4.5,0V116l5.8-5.8c-1.2-5.3,0.5-10.8,4.3-14.7
			c2.2-2.2,4.9-3.6,7.8-4.3l0.5,2.3c-2.5,0.6-4.9,1.8-6.7,3.7c-3.4,3.4-4.8,8.5-3.6,13.1l0.2,0.6l-6.1,6v4.4l-1.2,1.5h-4.5l-1.2,1.5
			v5l-2.3,0.5h-3.9L413,133l3.4,3.8h6.5l17.9-18.1l0.8,0.4c1.8,1,4,1.5,6.5,1.5l0,2.3c-2.5,0-4.8-0.5-6.8-1.4L423.9,139.1z"/>
	</g>
	<g>
		
			<rect x="417.6" y="123.9" transform="matrix(0.7071 -0.7071 0.7071 0.7071 37.4145 340.4998)" class="st7" width="24.2" height="2.3"/>
	</g>
	<g>
		<path class="st8" d="M450.8,149.5h6.6l4.9-5.8v-24.9c6.9-1.8,10.7-7.5,10.7-14.1c0-8.2-6.5-14.8-14.7-14.8
			c-8.1,0-14.9,6.6-14.9,14.8c0,5.5,3.8,10.2,7.3,12.8v8.9l2.3,2.3v2.3l-2.3,3.3v2l2.3,2.8v2.3l-2.3,2.3V149.5z"/>
		<path class="st7" d="M458,150.7h-8.3v-7.4l2.3-2.3v-1.4l-2.3-2.8V134l2.3-3.3v-1.5l-2.3-2.3v-8.8c-3.6-2.8-7.3-7.7-7.3-13.3
			c0-8.8,7.2-15.9,16-15.9c8.7,0,15.8,7.1,15.8,15.9c0,7.2-4.1,12.9-10.7,15v24.4L458,150.7z M452,148.3h4.9l4.3-5.1V118l0.9-0.2
			c6.1-1.6,9.9-6.6,9.9-13c0-7.5-6.1-13.6-13.5-13.6c-7.6,0-13.7,6.1-13.7,13.6c0,5,3.7,9.5,6.8,11.8l0.5,0.3v9l2.3,2.3v3.2
			l-2.3,3.3v1.2l2.3,2.8v3.2l-2.3,2.3V148.3z"/>
	</g>
	<g>
		<rect x="456.6" y="122.9" class="st7" width="2.3" height="19.6"/>
	</g>
	<g>
		<rect x="456.6" y="118.3" class="st7" width="2.3" height="2.3"/>
	</g>
	<g>
		<path class="st7" d="M460,101l-2.1-1c0.7-1.5,1-3.1,1-4.8c0-6.4-5.2-11.6-11.6-11.6c-6.4,0-11.6,5.2-11.6,11.6h-2.3
			c0-7.6,6.2-13.9,13.9-13.9s13.9,6.2,13.9,13.9C461.2,97.2,460.8,99.2,460,101z"/>
	</g>
	<g>
		<circle class="st6" cx="458.9" cy="99.8" r="4.6"/>
		<path class="st7" d="M458.9,105.6c-3.2,0-5.8-2.6-5.8-5.8c0-3.2,2.6-5.8,5.8-5.8c3.2,0,5.8,2.6,5.8,5.8
			C464.7,103,462.1,105.6,458.9,105.6z M458.9,96.4c-1.9,0-3.5,1.6-3.5,3.5c0,1.9,1.6,3.5,3.5,3.5c1.9,0,3.5-1.6,3.5-3.5
			C462.4,97.9,460.8,96.4,458.9,96.4z"/>
	</g>
</g>
<path class="st9" d="M275.2,324.5"/>
<g>
	<g>
		<path class="st6" d="M549.3,347.1h17.4c0.7,4.9,4.8,8.2,9.7,8.9c0,9.3,0,20,0,24.9c0,13.3-23.7,24.7-27.1,24.7
			c-3.4,0-27.1-11.4-27.1-24.7c0-4.8,0-15.6,0-24.9c4.9-0.7,9-3.9,9.7-8.9H549.3z"/>
		<path class="st7" d="M549.3,406.8c-4.1,0-28.4-12.1-28.4-26v-25.9l1.1-0.1c4.7-0.7,8.1-3.7,8.6-7.8l0.1-1.1h37l0.1,1.1
			c0.6,4.1,4,7.2,8.6,7.8l1.1,0.1v25.9C577.7,394.7,553.5,406.8,549.3,406.8z M523.4,357v23.8c0,12.4,23.2,23.5,25.9,23.5
			c2.7,0,25.9-11.1,25.9-23.5V357c-4.9-1-8.4-4.3-9.5-8.7h-32.8C531.9,352.7,528.3,356,523.4,357z"/>
	</g>
	<g>
		<path class="st8" d="M568.8,405.6l-1.4-2c10.1-7.2,15.2-14.8,15.2-22.7v-11.5h2.5v11.5C585.1,389.6,579.6,397.9,568.8,405.6z"/>
	</g>
	<g>
		<rect x="558" y="339.7" class="st8" width="9.9" height="2.5"/>
	</g>
	<g>
		<rect x="530.8" y="339.7" class="st8" width="9.9" height="2.5"/>
	</g>
	<g>
		<path class="st8" d="M529.8,405.6c-10.8-7.7-16.3-16-16.3-24.7v-11.5h2.5v11.5c0,7.9,5.1,15.5,15.2,22.7L529.8,405.6z"/>
	</g>
	<g>
		<path class="st7" d="M548.2,394c-10.6,0-19.3-8.6-19.3-19.3s8.6-19.3,19.3-19.3c2.4,0,4.7,0.4,6.9,1.3l-0.9,2.3
			c-1.9-0.7-3.9-1.1-6-1.1c-9.3,0-16.8,7.5-16.8,16.8s7.5,16.8,16.8,16.8c9.3,0,16.8-7.5,16.8-16.8h2.5
			C567.4,385.4,558.8,394,548.2,394z"/>
	</g>
	<g>
		<polygon class="st8" points="565.6,356.8 549.3,373.1 542.5,366.3 537.1,371.7 549.3,383.9 571,362.3 		"/>
		<path class="st7" d="M549.3,385.7l-13.9-13.9l7.2-7.2l6.8,6.8l16.3-16.3l7.2,7.2L549.3,385.7z M538.9,371.7l10.4,10.4l19.9-19.9
			l-3.7-3.7l-16.3,16.3l-6.8-6.8L538.9,371.7z"/>
	</g>
	<g>
		<rect x="582.6" y="354.5" class="st8" width="2.5" height="2.5"/>
	</g>
	<g>
		<rect x="582.6" y="359.5" class="st8" width="2.5" height="2.5"/>
	</g>
	<g>
		<rect x="582.6" y="364.4" class="st8" width="2.5" height="2.5"/>
	</g>
	<g>
		<rect x="513.6" y="354.5" class="st8" width="2.5" height="2.5"/>
	</g>
	<g>
		<rect x="513.6" y="359.5" class="st8" width="2.5" height="2.5"/>
	</g>
	<g>
		<rect x="513.6" y="364.4" class="st8" width="2.5" height="2.5"/>
	</g>
	<g>
		<rect x="548.1" y="339.7" class="st8" width="2.5" height="2.5"/>
	</g>
	<g>
		<rect x="543.2" y="339.7" class="st8" width="2.5" height="2.5"/>
	</g>
	<g>
		<rect x="553" y="339.7" class="st8" width="2.5" height="2.5"/>
	</g>
</g>
<polygon class="st6" points="392.3,273 383.9,268.5 384.4,216.5 387.5,206.7 395.2,196.8 409,191.4 425.6,191.4 435.9,194.1 
	443.2,199.9 450.1,210.5 452.4,222.3 451.7,237.5 451.8,268.3 444,273 439.3,272.6 428.3,268.8 424.6,273 416.7,273.6 410,272.1 
	408,268.7 "/>
<g id="Layer_1_2_">
	<g id="XMLID_4_">
		<g>
			<path class="st7" d="M464.7,466.2c0,1.1-0.8,1.6-1.6,1.6H383c-0.8,0-1.4-0.5-1.4-1.4c-0.3-6.6,4.1-12.3,10.4-14.5l19.7-6.6v-10.1
				c-6.8-3.3-11.7-9.3-13.9-16.7c-4.9-8.2-8.2-15.6-8.2-23.8c0-17.8,13.4-29.8,33.1-29.8c20.5,0,34.2,11.8,34.2,29.5
				c0,9-3.3,16.1-8.2,24.1c-1.9,7.4-7.1,13.4-13.9,16.7v10.1L454,452c3.1,1.1,5.8,3.1,7.7,5.6C463.6,460.1,464.7,463.1,464.7,466.2z
				 M384.6,465.1h77.3c-0.5-4.6-3.8-8.5-8.5-10.1l-18.8-6.3c-1.4,3.6-6.6,5.2-11.2,5.2c-2.7,0-5.2-0.5-7.7-1.6
				c-1.6-0.6-3-1.9-3.5-3.6l-19.1,6.3C388.5,456.4,385.2,460.5,384.6,465.1z M450.2,411c2.5-4.9,4.1-10.4,4.1-16.1
				c0-18.6-15.6-26.8-31.1-26.8c-18.3,0-30.3,10.7-30.3,26.8c0,5.5,1.6,10.6,4.1,15.6v-9c0-4.1,0.5-8.5,1.9-12.6v-0.3
				c0,0,0,0,0.3-0.3h0.6h0.3h0.3h0.3h0.3l0.6-0.3c6.8,4.6,15,7.1,23.2,7.1l-4.1-8.2v-0.3v-0.3v-0.3v-0.3v-0.3l0.3-0.3l0.3-0.3h0.3
				h0.3h0.3h0.3h0.3c10.9,4.9,18,5.7,22.9,2.7h0.3h0.3h0.3h0.5c0.6,0,0.8,0.3,1.1,0.8c1.6,4.4,2.5,8.7,2.5,13.1V411z M446.6,411.6
				v-10.1c0-3.5-0.5-7.1-1.6-10.4c-2.2,0.8-4.4,1.4-6.8,1.4c-4.6-0.3-9-1.1-13.4-3l3.5,6.8v0.3c0,0.3,0,0.3,0,0.3c0,0.3,0,0.3,0,0.5
				c-0.3,0-0.3,0.3-0.3,0.3v0.3c-0.3,0-0.3,0.3-0.5,0.3c-0.3,0.3-0.3,0.3-0.6,0.3c-1.1,0-1.9,0-3,0c-8.2,0-16.1-2.5-22.9-6.8
				c-0.8,3.3-1.4,6.6-1.4,9.8v10.1c-0.3,13.1,10.6,23.5,23.5,23.5C436,435.1,446.6,424.7,446.6,411.6z M431.6,446.6v-9.8
				c-2.3,0.9-4.8,1.4-7.1,1.4c-0.5,0-0.9,0-1.4-0.1c-3,0-5.8-0.6-8.5-1.4v9.8c0,2.7,4.4,4.1,8.5,4.1c2.1,0,4.1-0.3,5.8-1
				C430.5,449,431.6,447.9,431.6,446.6z"/>
			<path class="st8" d="M461.9,465.1h-77.3c0.5-4.6,3.8-8.7,8.5-10.1l19.1-6.3c0.5,1.6,1.9,3,3.5,3.6c2.5,1.1,4.9,1.6,7.7,1.6
				c4.6,0,9.8-1.6,11.2-5.2l18.8,6.3C458.1,456.7,461.4,460.5,461.9,465.1z"/>
			<path class="st6" d="M454.3,394.9c0,5.7-1.6,11.2-4.1,16.1v-9.3c0-4.4-0.8-8.8-2.5-13.1c-0.3-0.5-0.5-0.8-1.1-0.8h-0.5h-0.3h-0.3
				h-0.3c-4.9,3-12,2.2-22.9-2.7h-0.3h-0.3h-0.3h-0.3H421l-0.3,0.3l-0.3,0.3v0.3v0.3v0.3v0.3v0.3l4.1,8.2c-8.2,0-16.4-2.5-23.2-7.1
				l-0.6,0.3h-0.3h-0.3h-0.3h-0.3h-0.6c-0.3,0.3-0.3,0.3-0.3,0.3v0.3c-1.4,4.1-1.9,8.5-1.9,12.6v9c-2.5-4.9-4.1-10.1-4.1-15.6
				c0-16.1,12-26.8,30.3-26.8C438.7,368.1,454.3,376.3,454.3,394.9z"/>
			<path class="st6" d="M446.6,401.5v10.1c0,13.1-10.6,23.5-23.5,23.5c-12.9,0-23.8-10.4-23.5-23.5v-10.1c0-3.3,0.5-6.5,1.4-9.8
				c6.8,4.4,14.7,6.8,22.9,6.8c1.1,0,1.9,0,3,0c0.3,0,0.3,0,0.6-0.3c0.3,0,0.3-0.3,0.5-0.3v-0.3c0,0,0-0.3,0.3-0.3
				c0-0.3,0-0.3,0-0.5c0,0,0,0,0-0.3v-0.3l-3.5-6.8c4.4,1.9,8.7,2.7,13.4,3c2.5,0,4.7-0.5,6.8-1.4
				C446.1,394.4,446.6,397.9,446.6,401.5z"/>
			<path class="st6" d="M431.6,436.7v9.8c0,1.4-1.1,2.4-2.7,3.1c-1.6,0.7-3.7,1-5.8,1c-4.1,0-8.5-1.4-8.5-4.1v-9.8
				c2.7,0.8,5.5,1.4,8.5,1.4c0.5,0,0.9,0.1,1.4,0.1C426.9,438.2,429.4,437.6,431.6,436.7z"/>
		</g>
		<g>
		</g>
	</g>
</g>
<g id="Layer_1">
	<g id="XMLID_1_">
		<g>
			<path class="st7" d="M222.9,424.1c0,1.8-1.4,2.7-2.7,2.7H86.8c-1.4,0-2.3-0.9-2.3-2.3c-0.4-10.9,6.8-20.5,17.3-24.1l32.8-10.9
				v-16.9c-11.4-5.4-19.6-15.5-23.2-27.8c-8.2-13.7-13.7-25.9-13.7-39.6c0-29.6,22.3-49.6,55.1-49.6c34.1,0,56.9,19.6,56.9,49.2
				c0,15-5.5,26.9-13.6,40.1c-3.2,12.3-11.8,22.3-23.2,27.8v16.9l32.3,10.9c5.2,1.8,9.7,5.1,12.8,9.3
				C221.1,413.9,222.9,418.9,222.9,424.1z M89.5,422.3h128.8c-0.9-7.7-6.4-14.1-14.1-16.8L172.8,395c-2.3,5.9-10.9,8.7-18.6,8.7
				c-4.6,0-8.7-0.9-12.8-2.7c-2.7-0.9-5-3.2-5.9-5.9l-31.9,10.5C95.9,407.8,90.5,414.6,89.5,422.3z M198.8,332.2
				c4.1-8.2,6.8-17.3,6.8-26.9c0-30.9-25.9-44.6-51.9-44.6c-30.5,0-50.5,17.8-50.5,44.6c0,9.1,2.7,17.8,6.8,25.9v-15
				c0-6.8,0.9-14.1,3.2-20.9v-0.5c0,0,0,0,0.5-0.4h0.9h0.5h0.4h0.5h0.5l0.9-0.5c11.4,7.7,25,11.8,38.7,11.8l-6.8-13.7v-0.4v-0.5
				v-0.5v-0.4v-0.5l0.4-0.5l0.5-0.4h0.5h0.4h0.5h0.4h0.5c18.2,8.2,30,9.5,38.2,4.5h0.4h0.5h0.5h0.9c0.9,0,1.4,0.5,1.8,1.4
				c2.7,7.3,4.1,14.6,4.1,21.8V332.2z M192.9,333.1v-16.8c0-5.9-0.9-11.8-2.7-17.3c-3.6,1.4-7.3,2.3-11.4,2.3
				c-7.7-0.4-15-1.8-22.3-5l5.9,11.4v0.5c0,0.5,0,0.5,0,0.5c0,0.4,0,0.4,0,0.9c-0.4,0-0.4,0.5-0.4,0.5v0.4c-0.5,0-0.5,0.5-0.9,0.5
				c-0.5,0.5-0.5,0.5-0.9,0.5c-1.8,0-3.2,0-5,0c-13.7,0-26.8-4.1-38.2-11.4c-1.4,5.5-2.3,10.9-2.3,16.4v16.8
				c-0.5,21.8,17.8,39.1,39.1,39.1C175.1,372.2,192.9,354.9,192.9,333.1z M167.8,391.4V375c-3.8,1.5-7.8,2.4-11.7,2.4
				c-0.8,0-1.6,0-2.4-0.1c-5,0-9.6-0.9-14.1-2.3v16.4c0,4.6,7.3,6.8,14.1,6.8c3.4,0,7-0.6,9.6-1.7
				C166,395.4,167.8,393.7,167.8,391.4z"/>
			<path class="st6" d="M205.6,305.3c0,9.6-2.7,18.7-6.8,26.9v-15.5c0-7.3-1.4-14.5-4.1-21.8c-0.5-0.9-0.9-1.4-1.8-1.4H192h-0.5
				h-0.5h-0.4c-8.2,5-20,3.6-38.2-4.5h-0.5h-0.4H151h-0.4h-0.5l-0.5,0.4l-0.4,0.5v0.5v0.4v0.5v0.5v0.4l6.8,13.7
				c-13.6,0-27.3-4.1-38.7-11.8l-0.9,0.5h-0.5h-0.5H115h-0.5h-0.9c-0.5,0.4-0.5,0.4-0.5,0.4v0.5c-2.3,6.8-3.2,14.1-3.2,20.9v15
				c-4.1-8.2-6.8-16.8-6.8-25.9c0-26.8,20-44.6,50.5-44.6C179.7,260.7,205.6,274.4,205.6,305.3z"/>
			<path class="st6" d="M192.9,316.3v16.8c0,21.8-17.7,39.1-39.1,39.1c-21.4,0-39.6-17.3-39.1-39.1v-16.8c0-5.5,0.9-10.9,2.3-16.4
				c11.4,7.3,24.6,11.4,38.2,11.4c1.8,0,3.2,0,5,0c0.5,0,0.5,0,0.9-0.5c0.4,0,0.4-0.5,0.9-0.5v-0.4c0,0,0-0.5,0.4-0.5
				c0-0.5,0-0.5,0-0.9c0,0,0,0,0-0.5v-0.5l-5.9-11.4c7.3,3.2,14.6,4.6,22.3,5c4.1,0,7.7-0.9,11.4-2.3
				C192,304.4,192.9,310.3,192.9,316.3z"/>
			<path class="st6" d="M167.8,375v16.4c0,2.3-1.8,4-4.5,5.1c-2.7,1.1-6.2,1.7-9.6,1.7c-6.8,0-14.1-2.3-14.1-6.8V375
				c4.5,1.4,9.1,2.3,14.1,2.3c0.8,0.1,1.6,0.1,2.4,0.1C160,377.4,164.1,376.5,167.8,375z"/>
		</g>
		<g>
		</g>
	</g>
	<path class="st8" d="M89.5,422.3c0.9-7.7,6.4-14.6,14.1-16.8l31.9-10.5c0.9,2.7,3.2,5,5.9,5.9c4.1,1.8,8.2,2.7,12.7,2.7
		c7.7,0,16.4-2.7,18.7-8.6l31.4,10.5c7.7,2.7,13.2,9.1,14.1,16.8H89.5L89.5,422.3z"/>
</g>
<polyline class="st10" points="335.4,272.9 302.6,272.9 283.2,301.4 268.9,301.4 "/>
<line class="st10" x1="335.4" y1="337.4" x2="297.4" y2="337.4"/>
<circle class="st11" cx="335.4" cy="272.9" r="14.2"/>
<path class="st9" d="M302.6,377.4"/>
<circle class="st11" cx="335.4" cy="337.4" r="14.2"/>
<polyline class="st10" points="301.4,420.2 269.3,372.7 235.7,372.7 "/>
<circle class="st11" cx="302.2" cy="420.2" r="14.3"/>
<line class="st10" x1="268.9" y1="337.4" x2="259.4" y2="337.4"/>
<line class="st10" x1="287.9" y1="337.4" x2="278.4" y2="337.4"/>
<line class="st10" x1="226.2" y1="337.4" x2="249.9" y2="337.4"/>
<g id="Livello_2">
	<g id="Layer_1_1_">
		<path class="st8" d="M380.7,286.4c0.5-4.5,3.7-8.5,8.2-9.8l18.5-6.1c0.5,1.6,1.9,2.9,3.4,3.4c2.4,1.1,4.8,1.6,7.4,1.6
			c4.5,0,9.5-1.6,10.9-5l18.3,6.1c4.5,1.6,7.7,5.3,8.2,9.8H380.7z"/>
		<path class="st7" d="M448,273.7l-1.9-0.5c2.1-1.1,4.5-2.1,6.6-3.4c0.5-0.3,0.8-0.8,0.8-1.3v-47.9c-0.3-16.9-14-31-31.3-31h-8.7
			c-16.9,0-31,14-31,31v47.9c0,0.5,0.3,1.1,0.8,1.3c2.1,1.3,4.5,2.4,6.6,3.4l-2.1,0.5c-6.1,2.1-10.3,7.7-10.3,14
			c0,0.8,0.5,1.3,1.3,1.3h77.9c0.8,0,1.6-0.5,1.6-1.6l0,0C458.3,281.4,454.1,275.8,448,273.7z M385.5,267.6v-47.1
			c0-15.6,12.7-28.1,28.1-28.1h8.7c15.6,0,28.1,12.7,28.1,28.1v47.1c-2.6,1.6-5.6,2.9-8.5,4l-13-4.2v-9.8c9-4.2,14.6-13.2,14.6-23
			V225c0-1.9-0.3-3.4-0.5-5c0,0,0,0,0-0.3v-0.3l-0.3-0.3l-0.5-0.3l-0.3-0.3h-0.3h-0.3h-4.5c-4.5,0-8.2-3.7-8.2-8.2c0,0,0,0,0-0.3
			c0-6.1-5-11.1-11.1-11.1h-4.2c-13,0-21.5,10.1-21.5,25.7v9.8c0,9.8,5.6,18.8,14.6,23v9.8l-13,4.2
			C391.1,270.6,388.4,269.2,385.5,267.6L385.5,267.6z M413.6,202.2h4.2c4.5,0,8.2,3.7,8.2,8.2c0,6.1,5,11.1,11.1,11.1h3.2
			c0.3,1.1,0.3,2.4,0.3,3.4v9.8c-0.5,12.7-10.9,22.5-23.6,22c-11.9-0.3-21.7-10.1-22-22V225C395.3,213.9,400.1,202.2,413.6,202.2z
			 M409.9,268.4v-9.5c5.3,1.9,11.1,1.9,16.4,0v9.5l0,0c0,2.6-4.2,4-8.2,4C414.1,272.7,409.9,271.1,409.9,268.4L409.9,268.4z
			 M380.7,286.4c0.5-4.5,3.7-8.5,8.2-9.8l18.5-6.1c0.5,1.6,1.9,2.9,3.4,3.4c2.4,1.1,4.8,1.6,7.4,1.6c4.5,0,9.5-1.6,10.9-5l18.3,6.1
			c4.5,1.6,7.7,5.3,8.2,9.8H380.7z"/>
	</g>
</g>
</svg>
