<?xml version="1.0" encoding="utf-8"?>
<!-- Generator: Adobe Illustrator 21.0.2, SVG Export Plug-In . SVG Version: 6.00 Build 0)  -->
<svg version="1.1" id="_x2014_ÎÓÈ_x5F_1" xmlns="http://www.w3.org/2000/svg" xmlns:xlink="http://www.w3.org/1999/xlink"
	 x="0px" y="0px" viewBox="0 0 362 182" style="enable-background:new 0 0 362 182;" xml:space="preserve">
<style type="text/css">
	.st0{fill:#C9C9C9;}
	.st1{fill:#80CBED;}
	.st2{fill:#FFFFFF;}
	.st3{fill:#1E3B6E;}
</style>
<ellipse class="st0" cx="181.2" cy="158.5" rx="167.7" ry="4.9"/>
<path class="st1" d="M91.1,158.3c0,0,0-29.9,0-44.8c0-14.9,8.1-27.5,27.2-27.5s28.3,0,46.4,0c18.1,0,23.2,14.1,23.2,27.5
	c0,13.4,0,44.8,0,44.8H91.1z"/>
<path class="st1" d="M164.7,86c-18.1,0-27.3,0-46.4,0c-19.1,0-27.2,12.6-27.2,27.5c0,2.4,0,5.1,0,8.1c0-14.9,8.1-27.5,27.2-27.5
	c19.1,0,28.3,0,46.4,0s23.2,14.1,23.2,27.5c0-3.1,0-5.8,0-8.1C187.9,100.2,182.8,86,164.7,86z"/>
<path class="st1" d="M204.9,157.3c0,0,22,0,33.6,0c11.6,0,36.9-3.5,37.4-38.1c0.5-34.6-25.8-39.6-39.8-41.6c-14-2-28.4-1-28.4-1
	L204.9,157.3z"/>
<path class="st1" d="M236.1,77.6c-14-2-28.4-1-28.4-1l-2.8,80.7c0,0,0,0,0,0l2.3-66.4c0,0,14.4-1,28.4,1
	c13.1,1.9,37.2,6.4,39.6,35.6c0.4-2.5,0.6-5.3,0.7-8.3C276.4,84.7,250,79.6,236.1,77.6z"/>
<path class="st2" d="M226.7,146.7c8.6,0,38.5,2.1,38.5-27.3s-25.5-31.1-33.7-31.1c-8.2,0-11.3,1.6-12.3,9.6c-1,8-2.6,32.1-1.6,40.8
	C218.7,147.4,226.7,146.7,226.7,146.7z"/>
<path class="st3" d="M249.4,91.8c7.4,4.1,13.8,11.9,13.8,26.6c0,29.3-29.9,27.3-38.5,27.3c0,0-1.7,0.1-3.6-0.5
	c2.6,1.8,5.6,1.5,5.6,1.5c8.6,0,38.5,2.1,38.5-27.3C265.2,103.4,257.6,95.6,249.4,91.8z"/>
<path class="st1" d="M165.9,52.6l13.6-27c1.1-2.1,0.2-4.7-2-5.8c-2.2-1-4.8,0-5.7,2.2L160,49.9c-4.7-0.6-9.4,1.8-11.5,6.3
	c-1.3,2.8-1.3,6-0.3,8.7l2,0.9l3.2-6.9l6.4-0.7l3.4,5.3l-3.2,6.9l2,0.9c2.7-0.9,5.1-2.9,6.4-5.8C170.6,60.9,169.4,55.8,165.9,52.6z
	 M176.4,22.7c0.7,0.3,1,1.2,0.7,1.9c-0.3,0.7-1.2,1-1.9,0.7c-0.7-0.3-1-1.2-0.7-1.9C174.8,22.6,175.7,22.3,176.4,22.7z"/>
<path class="st3" d="M320.1,147.7h-24c-2.8,0-5.1,2.3-5.1,5.1l0,0c0,2.8,2.3,5.1,5.1,5.1h25.5c2.4,0,4.3-1.9,4.3-4.3
	C326,150.3,323.4,147.7,320.1,147.7z M320.1,154.8c-1.1,0-2-0.9-2-2c0-1.1,0.9-2,2-2c1.1,0,2,0.9,2,2
	C322.1,153.9,321.2,154.8,320.1,154.8z"/>
<path class="st3" d="M288.3,132.7c0,0,9.4-3.3,12.1,5.8c2.7,9.1,0,15.1-3.2,17.7c-3.2,2.7-6.3,0.9-6.3,0.9L288.3,132.7z"/>
<path class="st3" d="M157.2,130c0-3.2-2.7-5.9-5.9-5.8c-2.4,0-4.3,2-4.3,4.4l0.2,30.6l5.1,0c2.8,0,5.1-2.3,5.1-5.1L157.2,130z
	 M152.1,132.1c-1.1,0-2-0.9-2-2s0.9-2,2-2c1.1,0,2,0.9,2,2C154.1,131.2,153.2,132.1,152.1,132.1z"/>
<path class="st3" d="M172.9,159.5c0,0,2.2-9.7-7.1-11.3c-9.4-1.6-14.5,1.2-16.8,4.7c-2.3,3.5-1.7,6.4-1.7,6.4L172.9,159.5z"/>
<path class="st3" d="M39.5,146.7l0,0.2c0.1,1.2,1.1,2.1,2.3,2.1l6,0.3c1.1,0.1,2,0.9,2,2l0,0c0,1.2-0.9,2.2-2,2.2l-6,0.3
	c-1.2,0.1-2.1,1.1-2.1,2.3l0,0c0,1.3,1,2.3,2.3,2.4c2.1,0,5.4,0,8.3,0c4.8-0.1,7.2-3.2,7.1-7.3c-0.1-4-2.8-7.7-8.1-7.6
	c-3.1,0.1-6,0.4-7.9,0.7C40.2,144.3,39.4,145.4,39.5,146.7z"/>
<path class="st3" d="M173.6,49.1c0,0,17.1,7.4,20,21.9c3,14.5-11.2,22.1-11.2,22.1l3.6,9.2c0,0,21.5-8.8,14.9-34.3
	c-4.4-16.8-25.3-23-25.3-23L173.6,49.1z"/>
<path class="st3" d="M245.5,108.2L245.5,108.2c-0.5,0.5-1.3,0.5-1.8,0l-5.6-5.6c-0.5-0.5-0.5-1.3,0-1.8l0,0c0.5-0.5,1.3-0.5,1.8,0
	l5.6,5.6C246,106.9,246,107.7,245.5,108.2z"/>
<path class="st3" d="M238,108.2L238,108.2c-0.5-0.5-0.5-1.3,0-1.8l5.6-5.6c0.5-0.5,1.3-0.5,1.8,0l0,0c0.5,0.5,0.5,1.3,0,1.8
	l-5.6,5.6C239.3,108.7,238.5,108.7,238,108.2z"/>
<path class="st3" d="M245.5,137.5L245.5,137.5c-0.5,0.5-1.3,0.5-1.8,0l-5.6-5.6c-0.5-0.5-0.5-1.3,0-1.8l0,0c0.5-0.5,1.3-0.5,1.8,0
	l5.6,5.6C246,136.2,246,137,245.5,137.5z"/>
<path class="st3" d="M238,137.5L238,137.5c-0.5-0.5-0.5-1.3,0-1.8l5.6-5.6c0.5-0.5,1.3-0.5,1.8,0l0,0c0.5,0.5,0.5,1.3,0,1.8
	l-5.6,5.6C239.3,138,238.5,138,238,137.5z"/>
<path class="st3" d="M131,139.4h-0.2c-0.3-1.3-0.9-2.5-1.5-3.5l0.2-0.2c0.9-0.9,0.9-2.3,0-3.1l-1.7-1.7c-0.9-0.9-2.3-0.9-3.1,0
	l-0.2,0.2c-1.1-0.6-2.2-1.1-3.5-1.4v-0.4c0-1.2-1-2.2-2.2-2.2h-2.4c-1.2,0-2.2,1-2.2,2.2v0.5c-1.2,0.3-2.3,0.8-3.3,1.4l-0.4-0.4
	c-0.9-0.9-2.3-0.9-3.1,0l-1.7,1.7c-0.9,0.9-0.9,2.3,0,3.1l0.4,0.4c-0.6,1-1.1,2.1-1.4,3.3h-0.6c-1.2,0-2.2,1-2.2,2.2v2.4
	c0,1.2,1,2.2,2.2,2.2h0.5c0.3,1.2,0.8,2.3,1.4,3.4l-0.3,0.3c-0.9,0.9-0.9,2.3,0,3.1l1.7,1.7c0.9,0.9,2.3,0.9,3.1,0l0.2-0.2
	c1.1,0.7,2.2,1.2,3.5,1.5v0.2c0,1.2,1,2.2,2.2,2.2h2.4c1.2,0,2.2-1,2.2-2.2v-0.1c1.3-0.3,2.5-0.8,3.6-1.5l0.1,0.1
	c0.9,0.9,2.3,0.9,3.1,0l1.7-1.7c0.9-0.9,0.9-2.3,0-3.1l-0.1-0.1c0.7-1.1,1.2-2.3,1.5-3.6h0.1c1.2,0,2.2-1,2.2-2.2v-2.4
	C133.2,140.4,132.2,139.4,131,139.4z M110.9,143c0-3.8,3.1-6.8,6.8-6.8c3.8,0,6.8,3.1,6.8,6.8c0,3.8-3.1,6.8-6.8,6.8
	C114,149.8,110.9,146.7,110.9,143z"/>
<rect x="64.8" y="151.4" class="st3" width="17.7" height="6.5"/>
<rect x="70.6" y="134.1" class="st3" width="6" height="18.3"/>
<polygon class="st3" points="76.6,139.2 70.6,137.3 70.6,135.7 76.6,137.6 "/>
<polygon class="st3" points="76.6,142.7 70.6,140.8 70.6,139.2 76.6,141.1 "/>
<polygon class="st3" points="76.6,146 70.6,144.1 70.6,142.5 76.6,144.4 "/>
<path class="st3" d="M114.7,116.4c-0.7,0-1.3-0.5-1.4-1.3c-0.1-0.8,0.5-1.5,1.2-1.6l0,0c0.5-0.1,5.2-0.9,5.2-6.2c0-2.1-2-4.4-4.4-7
	c-4.2-4.6-9.3-10.4-7.8-19.7c1.3-7.9,7.8-13.9,14.9-13.9c0.1,0,0.2,0,0.2,0c6.7,0.1,11.4,5.6,12.6,14.7c0.1,0.8-0.5,1.5-1.2,1.6
	c-0.8,0.1-1.5-0.5-1.6-1.2c-1-7.6-4.5-12.1-9.8-12.2c-0.1,0-0.1,0-0.2,0c-4.9,0-10.9,4.4-12.1,11.5c-1.3,8,3.2,13,7.1,17.4
	c2.7,3.1,5.1,5.7,5.1,8.9c0,6.4-5,8.7-7.7,9.1C114.8,116.4,114.7,116.4,114.7,116.4z"/>
<path class="st3" d="M136.2,82c-0.1,0-0.1,0-0.2,0c-0.8-0.1-1.3-0.8-1.3-1.6c0-0.1,1.4-13.2-5.2-17c-10.8-6.2-16.9,3.1-17.2,3.5
	c-0.4,0.7-1.3,0.9-2,0.4c-0.7-0.4-0.9-1.3-0.4-2c0.1-0.1,7.8-12.1,21-4.5c8.2,4.7,6.7,19.2,6.6,19.8C137.5,81.4,136.9,82,136.2,82z"
	/>
<path class="st3" d="M79.7,67.6c-2.4,2.9-3.1,6.5-2.4,9.9c-3.5-0.1-6.9,1.3-9.3,4.1c-4.1,4.9-3.4,12.2,1.5,16.3
	c4.9,4.1,12.2,3.4,16.3-1.5c1.4-1.6,2.2-3.5,2.5-5.5l8.3,6.9c1.4,1.2,3.5,1,4.7-0.4c1.2-1.4,1-3.5-0.4-4.7l-8.3-6.9
	c1.9-0.7,3.6-1.8,4.9-3.5c4.1-4.9,3.4-12.2-1.5-16.3C91,62,83.8,62.7,79.7,67.6z M80.4,92c-1.6,2-4.6,2.2-6.6,0.6
	c-2-1.6-2.2-4.6-0.6-6.6c1.6-2,4.6-2.2,6.6-0.6C81.8,87.1,82.1,90.1,80.4,92z M92.1,78c-1.6,2-4.6,2.2-6.6,0.6
	c-2-1.6-2.2-4.6-0.6-6.6s4.6-2.2,6.6-0.6C93.5,73,93.8,76,92.1,78z"/>
<path class="st3" d="M161.7,35.6l-0.1,0.2c-0.4,1.1,0.2,2.4,1.3,2.8l5.4,2.7c1,0.5,1.4,1.7,1,2.7l0,0c-0.4,1.1-1.7,1.6-2.8,1.2
	l-5.6-2.2c-1.1-0.4-2.4,0.2-2.9,1.2l0,0c-0.5,1.2,0,2.6,1.2,3.1c1.9,0.9,4.9,2.2,7.5,3.3c4.4,1.9,7.9,0,9.5-3.7s0.6-8.2-4.3-10.3
	c-2.8-1.2-5.6-2.1-7.4-2.6C163.3,33.7,162.1,34.4,161.7,35.6z"/>
<rect x="117.6" y="80" class="st3" width="43.9" height="6"/>
<path class="st3" d="M288.2,90.7c3.2,0.8,5.8,2,7.6,3c1.3-1.1,3.3-1,4.6,0.2c1.3,1.3,1.4,3.5,0,4.8c-1.3,1.3-3.5,1.4-4.8,0
	c-0.9-0.9-1.2-2.2-0.9-3.4c-1.6-0.9-4.1-2-7-2.7c-7.4-1.8-14.3-0.6-20.7,3.6l-1.1-1.7C274.4,88.9,282.7,89.3,288.2,90.7z"/>
</svg>
