<svg xmlns="http://www.w3.org/2000/svg" viewBox="0 0 158.08 207.74">
  <defs>
    <style>.cls-1{fill:#c9c9c9;}.cls-2{fill:#1e3b6e;}.cls-3{fill:#80cbed;}.cls-4{fill:#fff;}</style>
  </defs>
  <title>Risorsa 2</title>
  <g id="Livello_2" data-name="Livello 2">
    <g id="_ÎÓÈ_1" data-name="—ÎÓÈ_1">
      <ellipse class="cls-1" cx="79.04" cy="201.55" rx="79.04" ry="6.19"/>
      <path class="cls-2"
            d="M46,199.86H69.65s-.25-8.68-9.08-9.94a37.49,37.49,0,0,0-8.11-.31l3-32.06L45,154l2.18,36.49c-.37.12-.57.19-.57.19Z"/>
      <path class="cls-2"
            d="M100.51,199.86h23.63s-.25-8.68-9.08-9.94a37.49,37.49,0,0,0-8.11-.31l3-32.06L99.44,154l2.18,36.49c-.37.12-.57.19-.57.19Z"/>
      <path class="cls-3"
            d="M29.88,109.51c0,10.38.27,26.67.42,40.16a8,8,0,0,0,8,7.88h76a8,8,0,0,0,8-8V97.79s2-15.15-17.25-15.15c-24.06,0-46.74,1.2-59.85,3.47S29.88,100,29.88,109.51Z"/>
      <path class="cls-2"
            d="M42.24,149.67c-.14-13.49-.42-29.78-.42-40.16,0-9.5,2.16-21.12,15.26-23.39,11.35-2,26.35-3.13,45.79-3.4-.84,0-1.71-.07-2.62-.07-24.06,0-42,1.2-55.12,3.47S29.88,100,29.88,109.51c0,10.38.27,26.67.42,40.16a8,8,0,0,0,8,7.88H50.22A8,8,0,0,1,42.24,149.67Z"/>
      <path class="cls-3"
            d="M43.71,79.61h61.05c13,0,17.48-6.49,17.48-24.84s-10.45-43-43.16-43-45,19.69-47.68,37.86S30.85,79.61,43.71,79.61Z"/>
      <path class="cls-2"
            d="M42.13,50.64C44.72,33.08,58,18.33,89.67,18.33a139.46,139.46,0,0,1,15.49.76c-6.44-4.47-15-7.32-26.08-7.32-32.72,0-45,19.69-47.68,37.86s-.55,30,12.31,30H54.06C41.6,79.61,39.54,68.2,42.13,50.64Z"/>
      <path class="cls-4"
            d="M117.07,54.77A49.28,49.28,0,0,0,113.38,36a13.26,13.26,0,0,0-12.23-8.14H71.58c-16.49,0-28.91,17.49-24.85,31.54s21.07,12,35.4,12h24.13a10.57,10.57,0,0,0,10.54-9.62C117,59.65,117.07,57.33,117.07,54.77Z"/>
      <path class="cls-2"
            d="M113.38,36a13.25,13.25,0,0,0-8.15-7.49A13.24,13.24,0,0,1,111.06,35a49.28,49.28,0,0,1,3.7,18.77c0,2.56-.09,4.89-.27,7a10.57,10.57,0,0,1-10.54,9.62H79.81c-8.73,0-18.46.76-25.64-1.82,7.31,3.76,18.25,2.83,28,2.83h24.13a10.57,10.57,0,0,0,10.54-9.62c.18-2.11.27-4.44.27-7A49.28,49.28,0,0,0,113.38,36Z"/>
      <circle class="cls-2" cx="70.78" cy="48.66" r="5.47"/>
      <circle class="cls-2" cx="106.74" cy="48.66" r="3.33"/>
      <path class="cls-2"
            d="M25.28,149.08c-.83-6.25-4.47-9-7.87-9.47h-.08c-.13,0-.23-.1-.36-.13A11.2,11.2,0,0,0,7,141.8a10.08,10.08,0,0,0-2.84,6.38,3.41,3.41,0,0,0-.06,1.2l.63,4.86a2.7,2.7,0,0,0,3,2.53,2.57,2.57,0,0,0,1.71-1.18l0,.54A2.79,2.79,0,0,0,12.15,159a2.41,2.41,0,0,0,1.56-.71v0a2.76,2.76,0,0,0,2.13,3.12l.33,0A2.55,2.55,0,0,0,18.89,159l.29-2.82V148s2.25.63,2.63,4.62S26.11,155.32,25.28,149.08Z"/>
      <path class="cls-2"
            d="M40.3,95.52a3.87,3.87,0,0,0-5.66-2.21A46.4,46.4,0,0,0,14.46,117.8a77.12,77.12,0,0,0-3.66,28.31l5.92.67c1.6-24.52,12.09-35.58,19.58-40.41a9.57,9.57,0,0,0,4-10.86Z"/>
      <path class="cls-2"
            d="M74.8,93.14l-7.7-4.07a2.45,2.45,0,0,1-1-3.31h0a2.45,2.45,0,0,1,3.31-1l7.7,4.07a2.45,2.45,0,0,1,1,3.31h0A2.45,2.45,0,0,1,74.8,93.14Z"/>
      <path class="cls-2"
            d="M73.55,29A21.81,21.81,0,1,0,93.94,52.13,21.81,21.81,0,0,0,73.55,29ZM71,68.38A17.67,17.67,0,1,1,89.8,51.86,17.67,17.67,0,0,1,71,68.38Z"/>
      <path class="cls-2"
            d="M67.73,120.52h0A2.39,2.39,0,0,1,65.49,118l3-46.74,4.78.3-3,46.74A2.39,2.39,0,0,1,67.73,120.52Z"/>
      <path class="cls-2"
            d="M77.08,88.82c-1.85-1-3.27.95-4,2.28a2.41,2.41,0,0,0-.58-.44l-7.7-4.07a2.45,2.45,0,0,0-2.73,4,2.44,2.44,0,0,0-1.29,4.6l.83.44A2.45,2.45,0,1,0,59.33,100L67,104s7.23,3.87,11.1-3.45S79.8,90.25,77.08,88.82Z"/>
      <path class="cls-2"
            d="M104.57,82.83h0c11.67,1,15.7,6.18,17.05,10.16,3.09.76,6.28,2.51,7.38,6.41,1.45,5.1-.19,12.61-16.18,11.35S77.64,96,77.64,96l-1.85,5.48a106.75,106.75,0,0,0,25.06,14.11C114.53,121,138,120.15,138,101.36S109.64,82.83,104.57,82.83Z"/>
      <path class="cls-2"
            d="M36.91,5.53a36,36,0,0,0-8.59-2.59,3.76,3.76,0,1,0-.17,2.2,34,34,0,0,1,7.94,2.42A27.61,27.61,0,0,1,51.58,24.79l2.09-.69A30.14,30.14,0,0,0,36.91,5.53Z"/>
    </g>
  </g>
</svg>
