<?xml version="1.0" encoding="utf-8"?>
<!-- Generator: Adobe Illustrator 21.0.2, SVG Export Plug-In . SVG Version: 6.00 Build 0)  -->
<svg version="1.1" id="_x2014_ÎÓÈ_x5F_1" xmlns="http://www.w3.org/2000/svg" xmlns:xlink="http://www.w3.org/1999/xlink"
	 x="0px" y="0px" viewBox="0 0 362 182" style="enable-background:new 0 0 362 182;" xml:space="preserve">
<style type="text/css">
	.st0{fill:#71BDD8;}
	.st1{fill:#80CBED;}
	.st2{fill:#EFEFEF;}
	.st3{fill-rule:evenodd;clip-rule:evenodd;fill:#EEFFFF;}
	.st4{fill:#C9C9C9;}
	.st5{fill-rule:evenodd;clip-rule:evenodd;fill:#1E3B6E;}
	.st6{fill-rule:evenodd;clip-rule:evenodd;fill:#80CBED;}
	.st7{fill:#1E3B6E;}
	.st8{fill-rule:evenodd;clip-rule:evenodd;fill:#C9E2E2;}
	.st9{fill-rule:evenodd;clip-rule:evenodd;fill:#9FC6C4;}
	.st10{fill-rule:evenodd;clip-rule:evenodd;fill:#E8F1F1;}
	.st11{fill:#1E3B6E;stroke:#80CBED;stroke-width:0.5;stroke-miterlimit:10;}
	.st12{fill:#B5B5B4;}
	.st13{fill:#BA2B1A;}
	.st14{fill:#EE2E1B;}
	.st15{fill:#9B1609;}
</style>
<g>
	<g>
		<path class="st0" d="M36,131.3c-0.1-2.8,0.3-16.1,13.7-21.8c13.3-5.6,23.9-1.8,28.5,0.7c-3.6-5-8.2-14.6-4-27
			c6.1-17.9,24.4-16.4,28-16c0.1-1.5,0.8-5.3,3.4-9.5c3-4.8,9.5-11.1,22.7-13.4c14.8-2.6,24.5,1.2,30.1,4.9c4.9,3.2,7.5,6.8,8.3,8.2
			c2.8-2,16.8-10.8,32-2.3c2.9,1.6,5.2,3.4,7.1,5.4c2.7-1.6,5.8-2.5,9.2-2.5c4.2,0,8,1.4,11,3.8c1.3-1.7,3.1-3.4,5.8-4.9
			c8.8-4.8,16.9-1.5,18.8-0.6c1.4-1.4,7.5-6.6,16.3-3.4c8.2,3,9.5,10.4,9.7,12.9c1.7-0.8,18.6-4.3,28.3,8.5
			c9.8,12.9,5.7,25.7,3.6,28.8c4.4,1.3,7.4,3.7,8.9,7c2.5,5.7,0,12.4-1,14.6c20.3,2.2,20.6,20.2,20.6,20.4c0,0.3-0.2,0.6-0.6,0.6
			H22.9c-0.3,0-0.6-0.2-0.6-0.6C22.3,134.5,33.5,131.8,36,131.3z"/>
		<path class="st1" d="M36,131.3c-0.1-2.6,0.3-14.7,11.6-20.8c4.4-2.7,12.4-6.7,22.1-7.6c0,0-4.1-13.2,9-27.8
			c7.9-9.3,20.6-8.3,23.5-7.9c0.1-1.5,0.8-5.3,3.4-9.5c3-4.8,9.5-11.1,22.7-13.4c14.8-2.6,24.5,1.2,30.1,4.9
			c4.9,3.2,7.5,6.8,8.3,8.2c2.8-2,16.8-10.8,32-2.3c6.9,3.8,10.6,8.9,12.7,13.7c0,0-9.4-5.7-28.4,2.6c-17.6,7.7-16.8,20.4-16.8,20.4
			s-16.8-7.3-33,2.9c-16.2,10.2-9.9,24.8-9.9,24.8s-8-11-26-9c-13.1,1.5-17.9,9-20.7,12.5c0,0-19.8-3.7-26.3,8.7
			c0,0-16.6-1.3-18.2,13.9h-9.3c-0.3,0-0.6-0.2-0.6-0.6C22.3,134.5,33.5,131.8,36,131.3z"/>
		<path class="st1" d="M312.5,144.6c-0.1-2.1-0.4-4.4-1.3-6.9c-4.6-13.5-18.4-12.4-21.1-12c-0.1-1.1-0.6-4-2.6-7.2
			c-2.3-3.7-7.1-8.4-17.1-10.1c-11.2-2-18.5,0.9-22.7,3.7c-3.7,2.4-5.6,5.1-6.3,6.2c-2.1-1.5-12.7-8.1-24.2-1.8
			c-5.2,2.9-8,6.7-9.5,10.3c-17.5,1.6-16.3,13.9-16.3,17.8H312.5z"/>
		<path class="st2" d="M21.8,144.5c0,0-1.4,1.4,8.4,2.9c11.5,1.8,31.2,0.4,33.9,3.7c3,3.6-10.8,2.6-10.6,6.7
			c0.2,3.5,15.1,3.4,32,3.4s144.3,0,157.9,0c13.6,0,11.2-3.1,9.2-4.5c-2.8-2-1.6-3.9,10.7-4.2c11.9-0.3,20.6-0.5,27.1-0.5
			c17.3,0,13.9-4.3,27.4-4.3c8.7,0,19.2-1.6,19.2-3.5c-44.3-3.9-93.7-6.6-147.5-6.9C127.7,137,71.4,140,21.8,144.5z"/>
	</g>
	<g>
		<polygon class="st3" points="129.1,78.6 127.1,84.2 197.3,100.6 199.1,92.5 		"/>
		<ellipse class="st4" cx="172.7" cy="146.3" rx="74.4" ry="6.1"/>
		<path class="st5" d="M228.8,149h-46.6c0,0-5.9-1.7-5-8.1c0.9-6.4,6.9-5.8,13.9-4.7c7,1.1,35.1,4.1,35.1,4.1L228.8,149z"/>
		<path class="st5" d="M181.9,8.5c-0.8,0.2-1.4,0.9-1.6,1.7c-6.1,1.1-24,6.5-22.7,31.4h3.1c-1.3-24,14.3-28.8,19.9-29.8
			c0.5,0.8,1.5,1.2,2.5,0.9c1.2-0.3,1.9-1.6,1.6-2.8C184.3,8.9,183.1,8.2,181.9,8.5z"/>
		<path class="st6" d="M193.5,96.2l-67.7-16.2c0,0-7.9-2.3-3-16.3c4.9-14,11.3-32.3,18-37.5c6.7-5.2,24.5-1.6,32.8,0.3
			c8.3,1.9,26.2,6.2,34.2,9c6.8,2.3,10.5,8,7.6,18c-2.1,7.3-9.2,27.5-12.8,37.9C201.2,95,197.3,97.1,193.5,96.2z"/>
		<path class="st5" d="M140.7,83.5c0,0-8.1-2.4-3.1-16.6c5-14.2,6.4-29.6,14.2-36.5c4.7-4.1,14.5-4.7,21.4-4.1
			c-8.4-1.9-25.8-5.3-32.4-0.2c-6.7,5.2-13.1,23.5-18,37.5c-4.9,14,3,16.3,3,16.3l74.4,17.8c0,0,0,0,0,0L140.7,83.5z"/>
		<path class="st3" d="M152.1,43.2c-2,6.8-6.3,21.8-7.2,27.1c-0.9,5.2,1,9.8,7.2,11.5c4.4,1.3,27,5.1,39.7,7.2c5,0.8,9.8-2.2,11.2-7
			c2.7-9.1,6.8-22.8,7.8-26c1.4-4.8,2.7-10.8-6.2-13.7c-8.9-2.9-29.3-7.4-37.3-8.8C159.3,32.1,154.4,35.3,152.1,43.2z"/>
		<path class="st5" d="M206.2,43c5.8,3.1,4.7,8.2,3.4,12.5c-0.9,3.2-5.1,16.8-7.8,26c-1.1,3.8-4.4,6.5-8.2,7
			c-0.8,0.2-1.8,0.3-2.7,0.3c-0.3,0-0.6,0-0.8,0c0.6,0.1,1.2,0.2,1.8,0.3c5,0.8,9.8-2.2,11.2-7c2.7-9.1,6.8-22.8,7.8-26
			C212.1,51.5,213.3,46,206.2,43z"/>
		<path class="st6" d="M127.3,82L193,97.8c4.1,1,6.7,4.9,6,9.1l-6.3,36.7c-0.8,3-3.5,5.2-6.7,5.2h-63.6c-7.3,0-13-6.5-11.9-13.7
			l6.5-45.9C117.7,84.2,122.4,80.9,127.3,82z"/>
		<path class="st5" d="M131.2,136.9l6.8-47.8c0.2-1.7,0.9-3.2,1.9-4.4L127.3,82c-4.9-1.1-9.7,2.2-10.4,7.2l-6.5,45.9
			c-1,7.3,4.6,13.7,11.9,13.7h13.8C132.6,146.1,130.6,141.7,131.2,136.9z"/>
		<g>
			<path class="st5" d="M161.3,58.6c1-1.4,2-2.4,2.8-1.8c0.8,0.6,0.6,2.2-0.4,3.6c-1,1.4-2.5,2.1-3.2,1.5
				C159.7,61.3,160.3,60,161.3,58.6z"/>
			<path class="st5" d="M188.1,64.6c1-1.4,1.9-2.5,2.7-1.9c0.8,0.6,0.7,2.2-0.3,3.6c-1,1.4-2.4,2.2-3.2,1.6
				C186.5,67.4,187.1,66,188.1,64.6z"/>
		</g>
		<path class="st7" d="M175.2,74.9c-0.2,0.1-0.4,0.1-0.6,0.1c-2.7-0.4-4.6-1.1-4.6-1.2c-0.5-0.2-0.8-0.8-0.5-1.3
			c0.2-0.5,0.8-0.8,1.3-0.5c0,0,1.7,0.7,4.2,1c0.5,0.1,0.9,0.6,0.9,1.1C175.7,74.5,175.5,74.8,175.2,74.9z"/>
		<path class="st5" d="M187.2,149h-46.6c0,0-5.9-1.7-5-8.1c0.9-6.4,6.9-5.8,13.9-4.7c7,1.1,35.1,4.1,35.1,4.1L187.2,149z"/>
		<path class="st8" d="M139.3,132.9l35.6,0.4l16-58c0.6-2,2.6-3.3,4.7-3l59.1,6c2,0.3,3.3,2.3,2.8,4.2L242.9,140
			c-0.6,2.3-2.8,3.8-5.1,3.7l-98.7-6.1c-1.3-0.1-2.3-1.2-2.2-2.5l0,0C137,133.9,138.1,132.9,139.3,132.9z"/>
		<path class="st9" d="M139.2,137.6l37.3,2.3l18.7-67.7c-1.9-0.1-3.6,1.2-4.2,3l-16,58l-35.6-0.4c-1.3,0-2.3,1-2.4,2.2
			C136.9,136.4,137.9,137.5,139.2,137.6z"/>
		<path class="st6" d="M201.6,118.1c0,0-9.9-4.6-14.7,9.1c-2.4,6.8-3.7,12.2-4.5,15.9c-0.6,3,1.7,5.8,4.7,5.8h1.1l3.3-5.9
			L201.6,118.1z"/>
		<path class="st5" d="M187.7,149h2.9c1.7,0,3.2-0.9,4-2.4c3.5-6.9,12.7-26.1,7-28.4c-5.7-2.3-13.5,19.8-16.1,27.9
			C185,147.5,186.1,149,187.7,149z"/>
		
			<ellipse transform="matrix(0.388 -0.9217 0.9217 0.388 35.2741 266.8591)" class="st10" cx="218.6" cy="106.9" rx="5.8" ry="4.2"/>
		<path class="st6" d="M242.1,118.1c0,0-9.9-4.6-14.7,9.1c-2.4,6.8-3.7,12.2-4.5,15.9c-0.6,3,1.7,5.8,4.7,5.8h1.1l3.3-5.9
			L242.1,118.1z"/>
		<path class="st5" d="M228.1,149h2.9c1.7,0,3.2-0.9,4-2.4c3.5-6.9,12.7-26.1,7-28.4c-5.7-2.3-13.5,19.8-16.1,27.9
			C225.5,147.5,226.6,149,228.1,149z"/>
		<path class="st5" d="M173,123.6l0.1,7.5c0.1,1.2-0.8,2.3-2,2.4l0,0c-1.1,0.1-2.1-0.6-2.4-1.6l-2.2-6.4l-0.5,0.3l0.3,5.6
			c0.1,1.3-0.9,2.4-2.1,2.4l0,0c-1,0-1.9-0.7-2.1-1.7l-1.7-6.2l-0.7,0.4l0.2,5c0.1,1.3-0.9,2.5-2.2,2.5l0,0c-1,0-1.8-0.6-2.1-1.6
			l-1-2.8c0,0-5,2.1-7.1-2.7c0,0-1.5-3.7,2.8-5.6c3.1-1.4,10.1-3.6,16.1-3.5C169.8,117.4,172.7,120.1,173,123.6z"/>
		<path class="st11" d="M127.2,95.1c-3,4.3-5.5,9.2-6.8,14.1c-0.6,2.5-0.9,4.9-0.7,7.2c0.2,2.3,0.9,4.4,2.2,6.1
			c0.3,0.4,0.7,0.9,1.1,1.3c0.2,0.2,0.4,0.4,0.6,0.6c0.2,0.1,0.3,0.3,0.5,0.4c0.7,0.5,1.7,0.9,2.8,1.2c1.1,0.3,2.3,0.4,3.6,0.5
			c1.3,0.1,2.6,0,3.9-0.1c2.7-0.2,5.4-0.7,8-1.4c1.3-0.3,2.7-0.7,4-1.1c0.7-0.2,1.3-0.4,2-0.6l1-0.3l0.5-0.2l0.4-0.2l0.1,0
			c1.6-0.6,3.5,0.2,4.1,1.9c0.6,1.6-0.2,3.5-1.8,4.1l-0.6,0.2l-0.5,0.2l-1.1,0.4c-0.7,0.2-1.4,0.5-2.1,0.7c-1.4,0.5-2.9,0.9-4.3,1.3
			c-2.9,0.8-5.9,1.4-9,1.8c-1.5,0.2-3.1,0.3-4.7,0.3c-1.6,0-3.3-0.1-5-0.5c-1.7-0.4-3.5-1-5.2-2c-0.4-0.3-0.8-0.6-1.2-0.9
			c-0.4-0.3-0.7-0.6-1-0.9c-0.7-0.6-1.3-1.3-1.8-2c-1.1-1.4-2.1-3-2.8-4.6c-0.7-1.7-1.1-3.4-1.4-5.1c-0.2-1.7-0.3-3.4-0.2-5.1
			c0.1-1.7,0.3-3.3,0.6-4.9c0.6-3.2,1.6-6.2,2.8-9.1c1.2-2.9,2.6-5.7,4.2-8.4l0,0c1.3-2.2,4.2-3,6.5-1.7c2.2,1.3,3,4.2,1.7,6.5
			C127.4,94.9,127.3,95,127.2,95.1z"/>
		<path class="st7" d="M148,87l-2.1,14.2c-0.1,0.7,0.4,1.4,1.1,1.5l0,0c0.7,0.1,1.3-0.4,1.4-1.1l2.4-14L148,87z"/>
	</g>
</g>
<g>
	<path class="st12" d="M30.5,145.7c0,0,13.2,1.2,32.5,0.9c19.3-0.4,26.4-0.9,26.4-0.9s-23.3-1.3-33-1.7
		C40.3,143.3,30.5,145.7,30.5,145.7z"/>
	<path class="st13" d="M69.8,145.5h1.5c0,0,1.8-12.2-2.5-22.1l-3.3,11.2C65.5,134.6,69.1,138.7,69.8,145.5z"/>
	<path class="st13" d="M48.5,123.7c0,0-5.4,10.6-2.6,21.8H47c0,0,0.9-6.9,4.4-10.2L48.5,123.7z"/>
	<path class="st14" d="M50.5,135.2c0,0,1.9,2.9,7.7,2.9c5.8,0,7.8-2.9,7.8-2.9s4.8-9,3.7-22.7c-0.9-11.2-8.1-23-10.8-27.1
		c-0.4-0.7-1.4-0.6-1.8,0.1c-2.2,4.7-8.4,18.5-9.3,27.8C46.7,124.5,50.5,135.2,50.5,135.2z"/>
	<path class="st13" d="M69.6,112.5c-0.9-11.2-8.1-23-10.8-27.1c-0.1-0.2-0.3-0.3-0.5-0.4c2.9,8.1,5.8,18.3,6.4,28.1
		c0.6,9.8-0.3,18.1-1.3,24.1c1.9-0.8,2.6-1.9,2.6-1.9S70.7,126.2,69.6,112.5z"/>
	<g>
		
			<ellipse transform="matrix(3.723845e-02 -0.9993 0.9993 3.723845e-02 -66.5339 164.3341)" class="st1" cx="52" cy="116.7" rx="1.2" ry="1.2"/>
		
			<ellipse transform="matrix(3.726513e-02 -0.9993 0.9993 3.726513e-02 -59.3266 158.8301)" class="st1" cx="52.8" cy="110.2" rx="0.9" ry="0.9"/>
		
			<ellipse transform="matrix(3.724472e-02 -0.9993 0.9993 3.724472e-02 -52.7015 154.2707)" class="st1" cx="53.7" cy="104.5" rx="0.7" ry="0.7"/>
		
			<ellipse transform="matrix(3.720223e-02 -0.9993 0.9993 3.720223e-02 -46.6592 150.5571)" class="st1" cx="54.8" cy="99.5" rx="0.5" ry="0.5"/>
	</g>
	<path class="st7" d="M50.7,130.9c0,0-0.2-3.5-0.2-5s0-4.5,1.4-4.5s1.5,2.7,1.5,4.4c0,1.7,0,5.1,0,5.1H50.7z"/>
	<polygon class="st15" points="53.3,130.9 50.9,130.9 49.6,130.9 49.6,133.3 47.2,133.3 47.2,135.7 44.8,135.7 44.8,138.1 
		42.3,138.1 42.3,140.6 39.9,140.6 39.9,143 37.5,143 37.5,145.5 38.5,145.5 53.4,130.9 	"/>
	<path class="st13" d="M58.4,123.5L57.1,138l3.5,7.5h1.3c0,0,1.1-12.1-2.7-22.1L58.4,123.5z"/>
</g>
</svg>
