<?xml version="1.0" encoding="utf-8"?>
<!-- Generator: Adobe Illustrator 21.0.2, SVG Export Plug-In . SVG Version: 6.00 Build 0)  -->
<svg version="1.1" id="Livello_1" xmlns="http://www.w3.org/2000/svg" xmlns:xlink="http://www.w3.org/1999/xlink" x="0px" y="0px"
	 viewBox="0 0 629 500.4" style="enable-background:new 0 0 629 500.4;" xml:space="preserve">
<style type="text/css">
	.st0{opacity:0.3;fill:#E2E2E2;}
	.st1{opacity:0.3;fill:#73D7FF;}
	.st2{opacity:0.32;fill:#73D7FF;}
	.st3{fill:#003575;}
	.st4{fill:#FFFFFF;}
	.st5{fill:#1E3A6D;}
	.st6{fill:#73D7FF;}
	.st7{fill:none;stroke:#42566B;stroke-width:2;stroke-linecap:round;stroke-linejoin:round;stroke-miterlimit:10;}
	.st8{fill:#00A0D8;}
	.st9{fill:#E9F5FD;}
	.st10{fill:#7ECEF5;}
	.st11{fill:#3B6C91;}
	.st12{fill:#B1D8EF;}
	.st13{fill:#1E3B6E;}
	.st14{fill:#80CBED;}
	.st15{fill:#BFDEFF;}
</style>
<path class="st0" d="M6.1,485.6c0-169.7,137.5-307.2,307.2-307.2s307.2,137.5,307.2,307.2"/>
<path class="st1" d="M44.9,485.6c0-145,120.2-262.5,268.4-262.5s268.4,117.5,268.4,262.5"/>
<path class="st2" d="M98.1,485.6c0-119.8,96.3-216.9,215.2-216.9s215.2,97.1,215.2,216.9"/>
<path class="st3" d="M618.7,491.5H7.8c-1,0-1.8-0.8-1.8-1.8v-2.4c0-1,0.8-1.8,1.8-1.8h610.9c1,0,1.8,0.8,1.8,1.8v2.4
	C620.4,490.7,619.6,491.5,618.7,491.5z"/>
<g>
	<g>
		<polygon class="st4" points="73,192.5 47.5,207.6 47.5,227.3 76.9,209.1 		"/>
		<path class="st5" d="M45.9,230.2v-23.5L74,190l4.7,19.9L45.9,230.2z M49.2,208.5v15.9L75,208.3L71.9,195L49.2,208.5z"/>
	</g>
	<g>
		<polygon class="st4" points="41.7,211 41.7,231.5 48.6,236 58.3,233.6 58.3,201.2 		"/>
		<path class="st5" d="M48.3,237.8l-8.3-5.4v-22.3l19.9-11.7v36.5L48.3,237.8z M43.3,230.6l5.6,3.7l7.7-1.9v-28.3L43.3,212V230.6z"
			/>
	</g>
	<g>
		<polygon class="st4" points="99.3,192.5 124.7,207.6 124.7,227.3 95.3,209.1 		"/>
		<path class="st5" d="M126.3,230.2l-32.8-20.4l4.7-19.9l28.1,16.7V230.2z M97.2,208.3l25.9,16.1v-15.9L100.3,195L97.2,208.3z"/>
	</g>
	<g>
		<polygon class="st4" points="130.6,211 130.6,231.5 123.6,236 113.9,233.6 113.9,201.2 		"/>
		<path class="st5" d="M123.9,237.8l-11.6-2.9v-36.5l19.9,11.7v22.3L123.9,237.8z M115.6,232.3l7.7,1.9l5.6-3.7V212l-13.4-7.9V232.3
			z"/>
	</g>
	<g>
		<path class="st4" d="M103,219.6c-2-25.9-5.5-42.2-14.5-63c-0.4-0.9-1.1-1.7-2.2-1.7c-1,0-1.7,0.8-2.2,1.7
			c-9,20.8-12.5,37.1-14.5,63"/>
		<path class="st5" d="M101.3,219.7c-2-26.7-5.7-42.5-14.4-62.5c-0.1-0.1-0.3-0.7-0.7-0.7c-0.3,0-0.6,0.6-0.7,0.7
			c-8.7,20-12.3,35.8-14.4,62.5l-3.2-0.2c2.1-27.1,5.8-43.1,14.6-63.5c0.7-1.7,2.1-2.7,3.6-2.7c1.6,0,2.9,1,3.6,2.7
			c8.9,20.4,12.6,36.4,14.6,63.5L101.3,219.7z"/>
	</g>
	<g>
		<ellipse class="st4" cx="86.3" cy="219.6" rx="16.7" ry="4"/>
		<path class="st5" d="M86.3,225.2c-1.9,0-18.3-0.2-18.3-5.6c0-5.4,16.4-5.6,18.3-5.6c1.9,0,18.3,0.2,18.3,5.6
			C104.6,225,88.2,225.2,86.3,225.2z M71.5,219.6c1.3,0.9,6.4,2.4,14.8,2.4c8.4,0,13.5-1.4,14.8-2.4c-1.3-0.9-6.4-2.4-14.8-2.4
			C77.9,217.2,72.8,218.7,71.5,219.6z"/>
	</g>
	<path class="st6" d="M86.3,221.3c-6.6,0-11.1-0.9-13.3-1.7c2.2-0.8,6.7-1.7,13.3-1.7c6.6,0,11.1,0.9,13.3,1.7
		C97.4,220.4,92.8,221.3,86.3,221.3z"/>
	<path class="st6" d="M86.3,260c-7.3-15-16.8-41.3,0-41.3C104.8,218.6,91.9,248.4,86.3,260z"/>
	<path class="st4" d="M86.3,247.9c-5-13-5.2-20.5-3.6-23c0.3-0.4,0.9-1.4,3.6-1.4c3,0,3.6,1,3.9,1.4
		C91.8,227.5,91.5,234.8,86.3,247.9z"/>
	<circle class="st6" cx="86.1" cy="186.7" r="5.8"/>
	<g>
		<path class="st6" d="M62.1,282l-3.2-0.5l0.5-3.2l3.2,0.5L62.1,282z M63.1,275.6l-3.2-0.5l0.5-3.2l3.2,0.5L63.1,275.6z M64.1,269.2
			l-3.2-0.5l0.5-3.2l3.2,0.5L64.1,269.2z M65.1,262.9l-3.2-0.5l0.5-3.2l3.2,0.5L65.1,262.9z M66.1,256.5l-3.2-0.5l0.5-3.2l3.2,0.5
			L66.1,256.5z M67.1,250.1l-3.2-0.5l0.5-3.2l3.2,0.5L67.1,250.1z M68.1,243.7l-3.2-0.5l0.5-3.2l3.2,0.5L68.1,243.7z M69.1,237.3
			l-3.2-0.5l0.5-3.2l3.2,0.5L69.1,237.3z M70.1,230.9l-3.2-0.5l0.5-3.2l3.2,0.5L70.1,230.9z"/>
	</g>
	<g>
		<path class="st6" d="M111.7,280.7l-0.3-1.9l3.2-0.5l0.3,1.9L111.7,280.7z M110.9,275.6l-0.5-3.2l3.2-0.5l0.5,3.2L110.9,275.6z
			 M109.9,269.2l-0.5-3.2l3.2-0.5l0.5,3.2L109.9,269.2z M108.8,262.8l-0.5-3.2l3.2-0.5l0.5,3.2L108.8,262.8z M107.8,256.5l-0.5-3.2
			l3.2-0.5l0.5,3.2L107.8,256.5z M106.8,250.1l-0.5-3.2l3.2-0.5l0.5,3.2L106.8,250.1z M105.7,243.7l-0.5-3.2l3.2-0.5l0.5,3.2
			L105.7,243.7z M104.7,237.3l-0.5-3.2l3.2-0.5l0.5,3.2L104.7,237.3z M103.7,230.9l-0.5-3.2l3.2-0.5l0.5,3.2L103.7,230.9z"/>
	</g>
</g>
<g>
	<g>
		<g>
			<circle class="st6" cx="249.8" cy="62.7" r="10.9"/>
		</g>
	</g>
	<g>
		<g>
			<g>
				<g>
					<path class="st3" d="M195.3,120.1c-3.5,0-6.3-2.8-6.3-6.3c0-3.5,2.8-6.3,6.3-6.3h33.2c1.7,0,3.1-1.4,3.1-3.1
						c0-1.7-1.4-3.1-3.1-3.1h-14.2c-3.5,0-6.3-2.8-6.3-6.3V91c0-0.4-0.3-0.7-0.7-0.8C196.8,89,189,80.3,189,69.8V53.2
						c0-0.9,0.7-1.6,1.6-1.6h7.1c0.4,0,0.8-0.3,0.8-0.8c0-0.9,0.7-1.6,1.6-1.6c0.9,0,1.6,0.7,1.6,1.6v4.7c0,0.9-0.7,1.6-1.6,1.6
						c-0.9,0-1.6-0.7-1.6-1.6c0-0.4-0.3-0.8-0.8-0.8h-4.7c-0.4,0-0.8,0.3-0.8,0.8v14.2c0,9.6,7.8,17.4,17.4,17.4
						c9.6,0,17.4-7.8,17.4-17.4V55.6c0-0.4-0.3-0.8-0.8-0.8h-4.7c-0.4,0-0.8,0.3-0.8,0.8c0,0.9-0.7,1.6-1.6,1.6
						c-0.9,0-1.6-0.7-1.6-1.6v-4.7c0-0.9,0.7-1.6,1.6-1.6c0.9,0,1.6,0.7,1.6,1.6c0,0.4,0.3,0.8,0.8,0.8h7.1c0.9,0,1.6,0.7,1.6,1.6
						v16.6c0,10.5-7.9,19.3-18.3,20.4c-0.4,0-0.7,0.4-0.7,0.8v3.9c0,1.7,1.4,3.1,3.1,3.1h14.2c3.5,0,6.3,2.8,6.3,6.3
						c0,3.5-2.8,6.3-6.3,6.3h-33.2c-1.7,0-3.1,1.4-3.1,3.1c0,1.7,1.4,3.1,3.1,3.1H245c1.7,0,3.1-1.4,3.1-3.1V76.9c0,0,0-0.1,0-0.1
						c0-0.4-0.2-0.8-0.6-0.8c-6.5-1.1-11.2-6.7-11.2-13.2c0-7.4,6-13.4,13.4-13.4c7.4,0,13.4,6,13.4,13.4c0,6.6-4.7,12.2-11.2,13.2
						c-0.4,0.1-0.7,0.4-0.6,0.8c0,0,0,0.1,0,0.1v36.9c0,3.5-2.8,6.3-6.3,6.3H195.3z M249.8,52.4c-5.7,0-10.3,4.6-10.3,10.3
						s4.6,10.3,10.3,10.3c5.7,0,10.3-4.6,10.3-10.3S255.4,52.4,249.8,52.4z"/>
				</g>
			</g>
		</g>
		<g>
			<g>
				<g>
					<rect x="248.2" y="61.1" class="st3" width="3.2" height="3.2"/>
				</g>
			</g>
		</g>
	</g>
</g>
<g>
	<path class="st3" d="M463.8,129.9c-0.1-0.3-0.5-0.2-0.4,0.1c0.9,3.7,1.8,7.5,2.7,11.2c0.1,0.3,0.5,0.2,0.4-0.1
		C465.5,137.3,464.6,133.6,463.8,129.9z"/>
	<path class="st3" d="M474.9,129.9c0.1-0.3,0.5-0.2,0.4,0.1c-0.9,3.7-1.8,7.5-2.7,11.2c-0.1,0.3-0.5,0.2-0.4-0.1
		C473.1,137.3,474,133.6,474.9,129.9z"/>
	<g>
		<path class="st6" d="M465.4,141.5h-1.2v5.5c0,1.4,1.3,2.5,2.8,2.5h1.2h3.5c1.6,0,2.8-1.1,2.8-2.5v-5.5H465.4z"/>
		<path class="st3" d="M471.7,150.5H467c-2.2,0-3.9-1.6-3.9-3.6v-5.5c0-0.6,0.5-1.1,1.1-1.1h10.3c0.6,0,1.1,0.5,1.1,1.1v5.5
			C475.6,148.9,473.9,150.5,471.7,150.5z M465.3,142.6v4.4c0,0.8,0.8,1.4,1.7,1.4h4.7c1,0,1.7-0.6,1.7-1.4v-4.4H465.3z"/>
	</g>
	<g>
		<path class="st4" d="M478.2,125.5l0,0.2l-0.1,0.8l-0.8,4.8h-15.9l0-0.1c0,0,0,0,0,0l-0.9-5.5l0-0.2H478.2z"/>
		<path class="st3" d="M477.3,132.4h-15.9c-0.5,0-1-0.4-1.1-0.9l0-0.1c0,0,0-0.1,0-0.1l-0.9-5.6c0-0.3,0-0.6,0.2-0.9
			c0.2-0.2,0.5-0.4,0.8-0.4h17.7c0.3,0,0.6,0.1,0.8,0.4c0.2,0.2,0.3,0.6,0.2,0.9l-0.9,5.8C478.3,132,477.8,132.4,477.3,132.4z
			 M462.3,130.2h14l0.6-3.6h-15.2L462.3,130.2z"/>
	</g>
	<path class="st3" d="M476.8,131.2c0.1-0.3,0.5-0.2,0.4,0.1c-1,3.3-2,6.6-3,9.9c-0.1,0.3-0.5,0.2-0.4-0.1
		C474.9,137.8,475.9,134.5,476.8,131.2z"/>
	<path class="st3" d="M461.8,131.2c-0.1-0.3-0.5-0.2-0.4,0.1c1,3.3,2,6.6,3,9.9c0.1,0.3,0.5,0.2,0.4-0.1
		C463.8,137.8,462.8,134.5,461.8,131.2z"/>
	<g>
		<g>
			<path class="st6" d="M475.1,141.8C475.1,141.8,475.1,141.8,475.1,141.8l0-0.1c0-0.1-0.1-0.1-0.1-0.1h-0.2l0.6-1h-1.6h-0.4l0.6,1
				h-0.2c-0.1,0-0.1,0.1-0.1,0.1v0.1c0,0,0,0,0,0c-0.1,0.1-0.3,0.1-0.4,0.2c-0.5,0.3-0.8,0.9-0.8,1.6c0,1.1,0.9,1.9,1.9,1.9
				c0.7,0,1.2-0.3,1.6-0.8c0.2-0.3,0.4-0.7,0.4-1.1C476.4,142.8,475.9,142.1,475.1,141.8z"/>
			<path class="st3" d="M474.4,146.6c-1.7,0-3-1.4-3-3c0-0.9,0.4-1.8,1.2-2.4l-0.1-0.1c-0.2-0.3-0.2-0.7,0-1.1s0.6-0.5,0.9-0.5h2
				c0.4,0,0.7,0.2,0.9,0.5c0.2,0.3,0.2,0.8,0,1.1l-0.1,0.1c0.7,0.6,1.2,1.4,1.2,2.4c0,0.6-0.2,1.2-0.6,1.8
				C476.3,146.1,475.4,146.6,474.4,146.6z M474.4,142.6c-0.1,0.1-0.2,0.1-0.3,0.2c-0.1,0-0.1,0.1-0.2,0.1c-0.2,0.2-0.4,0.4-0.4,0.7
				c0,0.5,0.4,0.8,0.8,0.8c0.3,0,0.5-0.1,0.7-0.4c0.1-0.2,0.2-0.3,0.2-0.5c0-0.3-0.2-0.7-0.5-0.8
				C474.6,142.8,474.5,142.7,474.4,142.6z"/>
		</g>
		<g>
			<path class="st6" d="M470,141.8C470,141.8,470,141.8,470,141.8l0-0.1c0-0.1-0.1-0.1-0.1-0.1h-0.2l0.6-1h-1.6h-0.4l0.6,1h-0.2
				c-0.1,0-0.1,0.1-0.1,0.1v0.1c0,0,0,0,0,0c-0.1,0.1-0.3,0.1-0.4,0.2c-0.5,0.3-0.8,0.9-0.8,1.6c0,1.1,0.9,1.9,1.9,1.9
				c0.7,0,1.2-0.3,1.6-0.8c0.2-0.3,0.4-0.7,0.4-1.1C471.2,142.8,470.7,142.1,470,141.8z"/>
			<path class="st3" d="M469.3,146.6c-1.7,0-3-1.4-3-3c0-0.9,0.4-1.8,1.2-2.4l-0.1-0.1c-0.2-0.3-0.2-0.7,0-1.1
				c0.2-0.3,0.6-0.5,0.9-0.5h2c0.4,0,0.7,0.2,0.9,0.5c0.2,0.3,0.2,0.8,0,1.1l-0.1,0.1c0.7,0.6,1.2,1.4,1.2,2.4
				c0,0.6-0.2,1.2-0.6,1.8C471.2,146.1,470.3,146.6,469.3,146.6z M469.3,142.6c-0.1,0.1-0.2,0.1-0.3,0.2c-0.1,0-0.1,0.1-0.2,0.1
				c-0.2,0.2-0.4,0.4-0.4,0.7c0,0.5,0.4,0.8,0.8,0.8c0.3,0,0.5-0.1,0.7-0.4c0.1-0.2,0.2-0.3,0.2-0.5c0-0.3-0.2-0.7-0.5-0.8
				C469.5,142.8,469.4,142.7,469.3,142.6z"/>
		</g>
		<g>
			<path class="st6" d="M464.9,141.8C464.9,141.8,464.9,141.8,464.9,141.8l0-0.1c0-0.1-0.1-0.1-0.1-0.1h-0.2l0.6-1h-1.6h-0.4l0.6,1
				h-0.2c-0.1,0-0.1,0.1-0.1,0.1v0.1c0,0,0,0,0,0c-0.1,0.1-0.3,0.1-0.4,0.2c-0.5,0.3-0.8,0.9-0.8,1.6c0,1.1,0.9,1.9,1.9,1.9
				c0.7,0,1.2-0.3,1.6-0.8c0.2-0.3,0.4-0.7,0.4-1.1C466.1,142.8,465.6,142.1,464.9,141.8z"/>
			<path class="st3" d="M464.2,146.6c-1.7,0-3-1.4-3-3c0-0.9,0.4-1.8,1.2-2.4l-0.1-0.1c-0.2-0.3-0.2-0.8,0-1.1
				c0.2-0.3,0.6-0.5,0.9-0.5h2c0.4,0,0.7,0.2,0.9,0.5c0.2,0.3,0.2,0.8,0,1.1l-0.1,0.1c0.7,0.6,1.2,1.4,1.2,2.4
				c0,0.6-0.2,1.2-0.6,1.8C466.1,146.1,465.2,146.6,464.2,146.6z M464.2,142.6c-0.1,0.1-0.2,0.1-0.3,0.2c-0.1,0-0.1,0.1-0.2,0.1
				c-0.2,0.2-0.4,0.4-0.4,0.7c0,0.5,0.4,0.8,0.8,0.8c0.3,0,0.5-0.1,0.7-0.4c0.1-0.2,0.2-0.3,0.2-0.5c0-0.3-0.2-0.7-0.5-0.8
				C464.4,142.8,464.3,142.7,464.2,142.6z"/>
		</g>
	</g>
	<g>
		<path class="st6" d="M460.5,125.7c0.4,0.4,0.9,0.9,1.3,1.3h1.5h1.8h1.7h1.7h0.8h0.8h1.7h1.7h1.8h1.5
			C602,5.5,339.1,7.6,460.5,125.7z"/>
		<path class="st3" d="M476.8,128.1h-15c-0.3,0-0.6-0.1-0.8-0.3l-1.3-1.3c-34.9-33.9-36.1-56-31-68.5c5.6-13.7,21.9-22.5,41.6-22.5
			c0,0,0,0,0,0c19.1,0,34.9,8.5,40.2,21.7c5.1,12.7,3.6,35.2-32.9,70.6C477.4,128,477.1,128.1,476.8,128.1z M462.3,125.9h14.1
			c27.6-26.9,39-51,32.1-68c-5-12.4-20-20.4-38.2-20.4c0,0,0,0,0,0c-18.8,0-34.3,8.3-39.6,21.2c-4.8,11.9-3.5,33.1,30.5,66.2
			c0,0,0,0,0,0L462.3,125.9z"/>
	</g>
	<g>
		<path class="st3" d="M463.3,128.1c-0.3,0-0.6-0.1-0.8-0.4C443,103.4,434,85.3,434.1,70.6c0-13.7,8.3-23.1,15.5-31.4
			c0.4-0.5,1.1-0.5,1.5-0.1c0.5,0.4,0.5,1.1,0.1,1.5c-15,17.1-29.1,33.2,12.9,85.7c0.4,0.5,0.3,1.2-0.2,1.5
			C463.8,128,463.6,128.1,463.3,128.1z"/>
	</g>
	<g>
		<path class="st3" d="M478.2,126.8c-0.3,0-0.6-0.1-0.8-0.4c-0.4-0.4-0.4-1.1,0.1-1.5c22.5-20.2,25.5-48.9,20.8-69.1
			c-2.1-8.8-5-13.5-6.3-13.9c-0.6-0.2-0.9-0.8-0.8-1.3c0.2-0.6,0.8-0.9,1.3-0.8c3.2,0.9,6.2,8.4,7.9,15.5
			c4.8,20.8,1.7,50.4-21.5,71.2C478.7,126.7,478.4,126.8,478.2,126.8z"/>
	</g>
	<g>
		<path class="st7" d="M459.1,37.5"/>
	</g>
	<g>
		<path class="st3" d="M465.1,128.1c-0.3,0-0.6-0.1-0.9-0.4C439.1,95.7,444.7,56.1,451,43c1.4-2.8,3.5-6.1,6.2-6.1h0
			c0.6,0,1.1,0.5,1.1,1.1c0,0.6-0.5,1.1-1.1,1.1c-0.8,0-2.4,1.3-4.2,4.9c-6.2,12.8-11.5,51.2,13,82.4c0.4,0.5,0.3,1.2-0.2,1.5
			C465.6,128,465.4,128.1,465.1,128.1z"/>
	</g>
	<g>
		<path class="st3" d="M475.3,128.1c-0.2,0-0.5-0.1-0.7-0.2c-0.5-0.4-0.6-1-0.2-1.5c22.8-30.1,18.5-67.9,12.8-81.5
			c-1.7-4.1-3.4-5.7-4.2-5.9c-0.6-0.1-1-0.6-0.9-1.2c0.1-0.6,0.6-1,1.2-0.9c2.6,0.3,4.6,4.1,5.9,7.2c6.9,16.5,9.5,53.8-13.1,83.6
			C476,127.9,475.6,128.1,475.3,128.1z"/>
	</g>
	<g>
		<path class="st3" d="M466.8,128.1c-0.4,0-0.8-0.2-1-0.6c-17.3-37.5-4.8-89.7-4.6-90.2c0.1-0.6,0.7-0.9,1.3-0.8
			c0.6,0.1,0.9,0.7,0.8,1.3c-0.1,0.5-12.5,52,4.5,88.7c0.3,0.5,0,1.2-0.5,1.4C467.1,128,467,128.1,466.8,128.1z"/>
	</g>
	<g>
		<path class="st3" d="M473.5,128.1c-0.1,0-0.3,0-0.4-0.1c-0.6-0.2-0.8-0.9-0.6-1.4c15.5-38,3-88.7,2.8-89.2
			c-0.1-0.6,0.2-1.2,0.8-1.3c0.6-0.1,1.2,0.2,1.3,0.8c0.1,0.5,12.9,51.9-2.9,90.6C474.3,127.8,473.9,128.1,473.5,128.1z"/>
	</g>
	<g>
		<path class="st3" d="M469.3,128.1c-0.6,0-1.1-0.5-1.1-1.1V36.5c0-0.6,0.5-1.1,1.1-1.1c0.6,0,1.1,0.5,1.1,1.1V127
			C470.4,127.6,469.9,128.1,469.3,128.1z"/>
	</g>
</g>
<g>
	<path class="st8" d="M235.5,378.5l0.1-2.2l0.3,0c0.6,0,1.2,0,1.8-0.1l0.3,2.2c-0.7,0.1-1.4,0.1-2.1,0.1L235.5,378.5z M230.7,377.5
		l0.9-2c0.6,0.3,1.2,0.5,1.9,0.6l-0.5,2.2C232.3,378.1,231.5,377.8,230.7,377.5z M239.6,375.8c0.7-0.2,1.3-0.4,1.9-0.7l0.9,2
		c-0.7,0.3-1.5,0.6-2.2,0.8L239.6,375.8z M226.8,374.6l1.6-1.5c0.4,0.5,1,0.9,1.5,1.3l-1.3,1.8C228,375.8,227.4,375.2,226.8,374.6z
		 M243.3,374.1c0.6-0.4,1.1-0.8,1.6-1.2l1.5,1.7c-0.6,0.5-1.2,1-1.9,1.4L243.3,374.1z M246.4,371.4c0.4-0.5,0.9-1.1,1.2-1.7l1.9,1.2
		c-0.4,0.7-0.9,1.3-1.4,1.9L246.4,371.4z M224.3,370.5l2.1-0.8c0.2,0.6,0.5,1.2,0.9,1.8l-1.9,1.2C224.9,372,224.6,371.2,224.3,370.5
		z M248.6,367.9c0.3-0.6,0.5-1.3,0.7-1.9l2.1,0.6c-0.2,0.8-0.5,1.5-0.8,2.2L248.6,367.9z M223.6,366.3v-0.6h2.2v0.6
		c0,0.5,0,1,0.1,1.4l-2.2,0.3C223.6,367.5,223.6,366.9,223.6,366.3z M279.6,362.9h0.3c0.6,0,1.2-0.1,1.7-0.2l0.4,2.2
		c-0.7,0.1-1.4,0.2-2.1,0.2h-0.3V362.9z M274.9,364.6l0.6-2.1c0.6,0.2,1.3,0.3,2,0.4l-0.2,2.2C276.4,365,275.6,364.9,274.9,364.6z
		 M249.7,364c0.1-0.5,0.1-1.1,0.1-1.7v-0.4h2.2v0.4c0,0.6,0,1.3-0.1,1.9L249.7,364z M283.5,362.2c0.6-0.2,1.2-0.6,1.8-0.9l1.2,1.8
		c-0.7,0.5-1.4,0.8-2.2,1.2L283.5,362.2z M270.6,362.3l1.4-1.7c0.5,0.4,1.1,0.8,1.6,1.1l-1.1,2C271.9,363.3,271.2,362.9,270.6,362.3
		z M223.6,361.3h2.2v2.2h-2.2V361.3z M286.8,360c0.5-0.5,0.9-1,1.2-1.6l1.9,1.2c-0.4,0.7-0.9,1.3-1.5,1.9L286.8,360z M267.6,358.5
		l2-1c0.3,0.6,0.6,1.2,1.1,1.7l-1.8,1.4C268.4,359.9,267.9,359.2,267.6,358.5z M249.8,357.5h2.2v2.2h-2.2V357.5z M223.6,356.8h2.2
		v2.2h-2.2V356.8z M288.9,356.6c0.2-0.6,0.4-1.3,0.5-1.9l2.2,0.3c-0.1,0.8-0.3,1.6-0.6,2.4L288.9,356.6z M266.4,353.8l2.2-0.1
		c0,0.7,0.1,1.3,0.3,2l-2.2,0.5C266.5,355.4,266.4,354.6,266.4,353.8z M249.8,353h2.2v2.2h-2.2V353z M223.6,352.4h2.2v2.2h-2.2
		V352.4z M289.5,350.4h2.2v2.2h-2.2V350.4z M266.4,349.3h2.2v2.2h-2.2V349.3z M249.8,348.6h2.2v2.2h-2.2V348.6z M223.6,347.9h2.2
		v2.2h-2.2V347.9z M289.5,346h2.2v2.2h-2.2V346z M266.4,344.8h2.2v2.2h-2.2V344.8z M249.8,344.1h2.2v2.2h-2.2V344.1z M223.6,343.5
		h2.2v2.2h-2.2V343.5z M289.5,341.5h2.2v2.2h-2.2V341.5z M266.4,340.4h2.2v2.2h-2.2V340.4z M249.8,339.7h2.2v2.2h-2.2V339.7z
		 M223.6,339h2.2v2.2h-2.2V339z M289.5,337.1h2.2v2.2h-2.2V337.1z M266.4,336h2.2v2.2h-2.2V336z M249.8,335.2h2.2v2.2h-2.2V335.2z
		 M223.3,334.9l2.2-0.5c0.2,0.8,0.3,1.6,0.3,2.4l-2.2,0.1C223.5,336.2,223.4,335.5,223.3,334.9z M289.5,332.6h2.2v2.2h-2.2V332.6z
		 M266.4,331.5h2.2v2.2h-2.2V331.5z M249.8,330.8h2.2v2.2h-2.2V330.8z M221.7,331.2l1.8-1.2c0.4,0.7,0.8,1.4,1.2,2.1l-2,0.9
		C222.4,332.4,222.1,331.8,221.7,331.2z M289.5,328.2h2.2v2.2h-2.2V328.2z M218.9,328.3l1.3-1.8c0.7,0.5,1.3,1,1.8,1.6l-1.6,1.5
		C219.9,329.1,219.4,328.7,218.9,328.3z M311.4,329.3l0.3-2.2c0.4,0.1,0.8,0.1,1.2,0.1h0.9v2.2h-0.9
		C312.4,329.4,311.9,329.4,311.4,329.3z M316,327.2h1.2c0.3,0,0.6,0,0.9-0.1l0.2,2.2c-0.4,0-0.8,0.1-1.2,0.1H316V327.2z
		 M266.4,327.1h2.2v2.2h-2.2V327.1z M320,326.7c0.6-0.2,1.2-0.5,1.7-0.9l1.3,1.8c-0.7,0.5-1.4,0.9-2.2,1.1L320,326.7z M306.8,327.4
		l1.3-1.8c0.5,0.4,1.1,0.7,1.7,1l-0.8,2.1C308.2,328.3,307.5,327.9,306.8,327.4z M249.8,326.4h2.2v2.2h-2.2V326.4z M215.3,326.6
		l0.6-2.1c0.8,0.2,1.5,0.5,2.3,0.8l-1,2C216.5,327,215.9,326.7,215.3,326.6z M212.3,326.2h-1.1v-2.2h1.1c0.4,0,0.8,0,1.2,0.1
		l-0.2,2.2C212.9,326.2,212.6,326.2,212.3,326.2z M146.5,323.9h0.2v2.2h-0.2V323.9z M148.9,323.9h2.2v2.2h-2.2V323.9z M153.4,323.9
		h2.2v2.2h-2.2V323.9z M157.8,323.9h2.2v2.2h-2.2V323.9z M162.3,323.9h2.2v2.2h-2.2V323.9z M166.7,323.9h2.2v2.2h-2.2V323.9z
		 M171.1,323.9h2.2v2.2h-2.2V323.9z M175.6,323.9h2.2v2.2h-2.2V323.9z M180,323.9h2.2v2.2H180V323.9z M184.5,323.9h2.2v2.2h-2.2
		V323.9z M188.9,323.9h2.2v2.2h-2.2V323.9z M193.4,323.9h2.2v2.2h-2.2V323.9z M197.8,323.9h2.2v2.2h-2.2V323.9z M202.3,323.9h2.2
		v2.2h-2.2V323.9z M206.7,323.9h2.2v2.2h-2.2V323.9z M323.2,324.5c0.4-0.5,0.8-1,1.1-1.6l2,1c-0.4,0.7-0.9,1.4-1.4,2L323.2,324.5z
		 M289.5,323.7h2.2v2.2h-2.2V323.7z M303.7,323.6l2-1c0.3,0.6,0.6,1.1,1.1,1.6l-1.7,1.4C304.5,325.1,304,324.4,303.7,323.6z
		 M266.4,322.6h2.2v2.2h-2.2V322.6z M249.8,321.9h2.2v2.2h-2.2V321.9z M325,321.1c0.2-0.6,0.2-1.3,0.2-1.9l2.2,0
		c0,0.8-0.1,1.7-0.3,2.5L325,321.1z M289.5,319.3h2.2v2.2h-2.2V319.3z M302.6,319.1l0-0.2l2.2-0.1l0,0.3c0,0.6,0.1,1.1,0.2,1.7
		l-2.2,0.5C302.7,320.6,302.6,319.9,302.6,319.1z M266.4,318.2h2.2v2.2h-2.2V318.2z M249.8,317.5h2.2v2.2h-2.2V317.5z M289.5,315.3
		c0-0.2,0-0.4,0-0.5l2.2,0.2c0,0.1,0,0.2,0,0.3v1.8h-2.2V315.3z M301.5,315.2l1.9-1.2c0.4,0.7,0.8,1.5,1,2.3l-2.1,0.6
		C302.1,316.4,301.9,315.8,301.5,315.2z M325.2,314.7h2.2v2.2h-2.2V314.7z M266.4,313.7h2.2v2.2h-2.2V313.7z M249.8,313h2.2v2.2
		h-2.2V313z M298.7,312.6l1.1-2c0.7,0.4,1.4,0.9,2,1.5l-1.5,1.6C299.8,313.3,299.3,312.9,298.7,312.6z M290.4,312.2
		c0.5-0.8,1.2-1.4,2-1.9l1.1,1.9c-0.5,0.3-0.9,0.7-1.2,1.2L290.4,312.2z M325.2,310.3h2.2v2.2h-2.2V310.3z M295.2,311.7l-0.2,0
		l-0.1-2.2c0.8,0,1.7,0.1,2.5,0.2l-0.5,2.2C296.4,311.8,295.8,311.7,295.2,311.7z M266.4,309.3h2.2v2.2h-2.2V309.3z M249.8,308.6
		h2.2v2.2h-2.2V308.6z M325.2,305.8h2.2v2.2h-2.2V305.8z M266.4,304.8h2.2v2.2h-2.2V304.8z M249.8,304.1h2.2v2.2h-2.2V304.1z
		 M325.2,301.4h2.2v2.2h-2.2V301.4z M266.4,300.4h2.2v2.2h-2.2V300.4z M249.8,299.7h2.2v2.2h-2.2V299.7z M266.4,296h2.2v2.2h-2.2
		V296z M249.8,295.2h2.2v2.2h-2.2V295.2z M266.4,292.2c0-0.2,0-0.4,0-0.5l2.2-0.3c0,0.3,0.1,0.6,0.1,0.9v1.5h-2.2V292.2z
		 M249.8,292.2c0-0.6,0.1-1.2,0.3-1.7l2.1,0.6c-0.1,0.3-0.2,0.7-0.2,1.1v0.8h-2.2V292.2z M264.4,289l1.1-1.9c0.8,0.4,1.5,1.1,2,1.8
		l-1.8,1.3C265.4,289.6,264.9,289.2,264.4,289z M251.4,288.2c0.6-0.7,1.4-1.2,2.2-1.5l0.8,2.1c-0.5,0.2-1,0.5-1.4,0.9L251.4,288.2z
		 M260.7,288.5v-2.2h2c0.1,0,0.2,0,0.3,0l-0.1,2.2L260.7,288.5z M256.2,286.3h2.2v2.2h-2.2V286.3z"/>
</g>
<rect x="325.2" y="295.8" class="st8" width="2.2" height="2.2"/>
<rect x="325.2" y="291.4" class="st8" width="2.2" height="2.2"/>
<rect x="325.2" y="286.9" class="st8" width="2.2" height="2.2"/>
<rect x="325.2" y="282.5" class="st8" width="2.2" height="2.2"/>
<g id="Livello_2">
	<g id="Layer_1">
		<polygon class="st4" points="314.4,239.9 306.1,232.3 302.5,224.1 301.8,213.7 301.8,203.7 299.7,202.6 296.4,205.8 291.8,206.9 
			286.8,206.5 287.5,259.6 314.4,254.2 		"/>
		<path class="st4" d="M355.2,198.3c-0.7-0.4,9.3-0.7,9.3-0.7l5.7,62l-25.8-6.8l-3.2-12.2l6.8-6.1l3.6-3.9l2.5-7.5l1.4-7.9
			L355.2,198.3z"/>
		<polyline class="st4" points="334.8,164.3 340.2,173.6 337.3,180.7 334.8,182.9 345.5,196.1 353.1,197.6 360.6,199 364.5,197.2 
			360.6,182.9 356.3,174.7 347.7,167.5 337.6,163.2 		"/>
		<path class="st9" d="M328.7,265.3L328.7,265.3c-5.4,0-10.7-2.5-16.5-8.2l2.1-0.4c3.6,3.6,9,6.1,14.3,6.4
			c5.4-0.4,10.7-2.5,14.3-6.4l1.4,0.4C339.1,262.4,333.7,265.3,328.7,265.3z"/>
		<path class="st4" d="M334.4,186.8c1.4,2.1,2.9,4.3,4.7,6.1c3.6,3.6,8.6,6.1,13.6,7.2c0,0.7,0.4,1.4,0.4,2.5v15.8
			c0,12.9-10.7,23.6-23.6,23.6H328c-12.9,0-23.6-10.7-23.6-23.6v-15.8c0-12.9,10-23.3,22.9-23.6
			C329.8,180.7,332.6,183.6,334.4,186.8z"/>
		<path class="st4" d="M327.6,246.3h1.4c3.6,0,7.5-0.7,10.7-2.1v9.3c-7.9,7.2-15.4,7.2-23.3,0v-9.3
			C320.5,245.6,323.7,246.3,327.6,246.3z"/>
		<path class="st10" d="M281.8,277.1c0-6.8-1.1-12.9,6.4-14.7l19.3-4.7c6.4,6.8,12.9,10.7,19,11.1v15.4h-44.8V277.1z"/>
		<path class="st10" d="M377.4,283.6h-46.6v-14c6.4-0.7,12.5-4.7,18.6-11.5l20.1,4.7c7.5,1.8,8.2,7.9,8.2,14.7L377.4,283.6z"/>
		<path class="st5" d="M372,259.2l-6.1-58c0-22.2-11.8-39.8-34-39.8h-7.2c-22.2,0-39.8,17.9-39.8,39.8l0,0v58.4
			c-8.2,2.9-7.9,10-7.9,17.9v8.2c0,1.1,1.1,2.1,2.1,2.1l0,0h100c1.1,0,2.1-1.1,2.1-2.1l0,0v-8.2C381.7,269.6,380.3,262.4,372,259.2z
			 M361.7,201.5l6.1,56.6l-23.3-5.7v-10.7c7.9-5,12.9-14,12.9-23.3v-15.8c0-0.4,0-1.8,0-1.8c0.7,0,1.8,0,2.5,0h0.4
			c0.4,0,0.7-0.4,1.1-0.4C361.7,200.8,361.7,201.2,361.7,201.5z M329.4,242H328c-12.9,0-23.6-10.7-23.6-23.6v-15.8
			c0-12.9,10-23.3,22.9-23.6c3.2,2.1,5.7,4.7,7.9,7.9c1.4,2.1,2.9,4.3,4.7,6.1c3.6,3.6,9,6.1,14,7.2c0,0.7,0,1.4,0,2.5v15.8
			C352.7,231.3,342.3,241.6,329.4,242L329.4,242z M340.2,243.8v9.3c-7.9,7.2-15.4,7.2-23.3,0v-9.3c3.6,1.4,7.2,2.1,10.7,2.1
			C328,245.9,336.6,246.3,340.2,243.8L340.2,243.8z M299.7,176.4c6.8-6.8,15.8-10.4,25.1-10.4h7.2c17.9,0,27.9,13.3,29.4,30.8
			c-0.4-0.4-0.4-0.4-1.1-0.4h-0.4c-6.8,0.4-12.9-2.1-17.6-6.8c-1.4-1.4-2.9-3.2-3.9-5c-2.5-3.6-5.7-7.2-9.3-9.7
			c-0.4-0.4-0.4-0.4-0.7-0.4c-4.7-2.5-9.7-4.3-15-4.3h-2.1c-1.1,0-2.1,0.7-2.5,1.8c0,1.1,0.7,2.1,1.8,2.5c0.4,0,0.4,0,0.4,0h1.8
			c2.1,0,4.7,0.4,6.8,0.7c-11.8,3.6-20.1,14.3-20.1,26.9V218c0,9.7,4.7,18.3,12.9,23.6v10.7l-23.3,5.7v-56.6
			C289.3,192.2,292.9,182.9,299.7,176.4z M326.5,283.6h-44.8v-6.1c0-6.8-1.1-12.9,6.4-14.7l19.3-4.7c6.4,6.8,12.9,10.7,19,11.1
			V283.6z M328.7,265.3L328.7,265.3c-5.4,0-10.7-2.5-16.5-8.2l2.1-0.4c3.6,3.6,9,6.1,14.3,6.4c5.4-0.4,10.7-2.5,14.3-6.4l1.4,0.4
			C339.1,262.4,333.7,265.3,328.7,265.3z M377.4,283.6h-46.6v-14c6.4-0.7,12.5-4.7,18.6-11.5l20.1,4.7c7.5,1.8,8.2,7.9,8.2,14.7
			L377.4,283.6z"/>
		<g id="_Gruppo_">
			<path class="st5" d="M325.8,174.7l-10.7,1.8l-1.1-1.8c0,0,0,0,0.4-0.4s0.4-0.4,0.7-0.4l10.7-2.1c0.4,0,1.4,0.4,1.4,0.7
				C326.9,173.6,326.5,174.3,325.8,174.7L325.8,174.7L325.8,174.7z"/>
			<path class="st10" d="M302.2,186.1L302.2,186.1l-1.1-1.8c0.4,0,0.7,0,1.1,0.4S302.9,186.1,302.2,186.1z"/>
			<path class="st5" d="M317.6,162.5c0.4-0.4,1.1-0.4,1.4,0l0,0c0.4,0.4,0.4,1.1,0,1.4l0,0l-6.4,6.4l-0.7,0.4l-1.1-1.4
				c0,0,0-0.4,0.4-0.4L317.6,162.5z"/>
			<path class="st10" d="M305.4,190.4c0.4-0.4,0.7-0.4,1.4-0.4s0.7,0.4,0.7,1.1C306.5,191.1,306.1,190.8,305.4,190.4z"/>
			<path class="st10" d="M317.6,183.3c0-0.4,0.4-0.7,0.7-1.1c0,0.4,0,1.4,0,1.8v0.4C317.9,184.3,317.6,184,317.6,183.3z"/>
			<path class="st10" d="M315.4,176.4c-0.4,0-1.4-0.4-1.4-0.7s0-0.4,0.4-0.7L315.4,176.4z"/>
			<path class="st5" d="M298.2,180c-0.4,0.4-0.4,0.7-0.4,0.7l-8.2,2.1c-0.4,0.4-1.1,0-1.1-0.7s0-0.7,0.4-1.1c0.4,0,0.4-0.4,0.4-0.4
				l7.9-2.5l0,0L298.2,180z"/>
			<path class="st10" d="M306.1,165.3c-0.4-0.4-0.4-0.4-0.4-1.1c0.7,0.4,1.4,0.4,2.1,0.7C307.2,165.7,306.8,165.7,306.1,165.3z"/>
			<path class="st10" d="M335.5,168.2c-1.4-1.1-3.6-1.8-5.7-2.5c-0.4-0.4,0-1.4,0-1.8s0-0.4,0-0.4c0.4-1.8,0.4-3.9-0.4-5.7
				c-0.7-2.1-3.2-3.6-5.4-4.3c-2.1-0.7-4.7-0.4-6.4,1.1c-3.9,2.9-7.2,6.8-9.7,10.7c0,0,0,0,0,0.4c-0.4,0.4-1.1,0.4-1.4,0
				s-0.4-0.4-0.4-1.1c-1.4-0.4-2.5,0-3.6,0.4l-5.4,3.6c-0.7,0-1.1,0-1.1,0.4c-1.1,0.7-1.4,1.8-1.4,2.5c0.4,0,0.4,0.4,0.4,1.1
				s0,1.1-0.7,1.1h-0.4c-4.7,0.4-9.7,1.4-14,3.6c-1.8,1.1-3.2,2.9-3.6,5c-0.4,2.5-0.7,5,1.1,7.2c1.4,1.4,3.6,2.5,6.1,2.9
				c0.4,0,1.1,0.4,0.7,0.7c0,0.4,0.4,0.7,0,1.1c-0.4,1.4-0.7,3.6-0.4,5c0.4,2.9,2.9,5.4,5.7,6.1c2.5,0.7,6.1,1.1,7.9-1.1
				c3.6-3.6,5.4-9,7.2-13.6c0-0.4,0.4-0.4,0.4-0.4c0.4-0.4,0.7-0.4,1.4-0.4c0.4,0.4,0.7,0.4,0.7,1.1c1.1,0.4,2.5,0,3.6-0.4l5.4-3.6
				c0.4-0.4,0.4-0.4,0.7-0.7s1.1-1.4,1.4-2.1c-0.4-0.4-0.7-0.7-0.7-1.1s0.4-0.7,0.7-1.1l1.1,0.7c5,0.4,10.4,0.4,15-1.4
				c2.5-0.7,4.7-2.9,4.7-5.7C340.2,173.6,338.4,169.6,335.5,168.2z M289.6,182.9c-0.4,0.4-1.1,0-1.1-0.7s0-0.7,0.4-1.1
				c0.4,0,0.4-0.4,0.4-0.4l7.9-2.5l0,0c0.4,0,1.1,0.4,1.4,0.7c0,0.4,0,0.7-0.4,1.1c-0.4,0.7-0.4,0.7-0.4,0.7L289.6,182.9z
				 M295.4,195.4c-0.4,0.4-1.1,0.4-1.4,0.4l0,0c-0.7-0.4-0.7-1.1-0.4-1.4l0,0l6.8-9.3l0,0l0.4-0.4c0.4,0,0.7,0,1.1,0.4
				s0.4,1.1,0.4,1.4l0,0L295.4,195.4z M311.1,170.7c-0.4-0.4-0.4-1.1-0.4-1.4c0,0,0-0.4,0.4-0.4l6.4-6.4c0.4-0.4,1.1-0.4,1.4,0l0,0
				c0.4,0.4,0.4,1.1,0,1.4l0,0l-6.4,6.4l-0.7,0.4C311.1,170.7,311.1,170.7,311.1,170.7z M325.8,174.7l-10.7,1.8
				c-0.4,0-1.4-0.4-1.4-0.7s0-0.4,0.4-0.7c0,0,0,0,0.4-0.4s0.4-0.4,0.7-0.4l10.7-2.1c0.4,0,1.4,0.4,1.4,0.7
				C326.9,173.6,326.5,174.3,325.8,174.7L325.8,174.7L325.8,174.7z"/>
			<path class="st5" d="M302.2,186.5l-6.8,9c-0.4,0.4-1.1,0.4-1.4,0.4l0,0c-0.7-0.4-0.7-1.1-0.4-1.4l0,0l6.8-9.3l0,0l0.4-0.4
				L302.2,186.5z"/>
			<path class="st10" d="M298.6,179.3c0,0.4,0,0.7-0.4,1.1l-1.1-1.8C297.9,178.2,298.2,179,298.6,179.3z"/>
			<path class="st10" d="M311.9,171.1c-0.7-0.4-0.7-0.4-0.7-0.4c-0.4-0.4-0.4-1.1-0.4-1.4L311.9,171.1z"/>
			<path class="st10" d="M294.7,171.4c0.4,0,0.4,0.4,0.7,1.1c0,0.4-0.4,1.1-0.7,1.1C294.3,172.9,294.3,172.1,294.7,171.4
				L294.7,171.4z"/>
			<path class="st5" d="M292.5,171.1L292.5,171.1c-4.7,0.7-9,2.1-13.3,4.7c-0.7,0-1.8,0.7-2.5,1.4c-1.4,1.4-2.5,2.9-2.5,4.7
				c-0.4,3.2,0.4,6.4,2.5,8.6c1.4,1.4,3.6,2.9,6.1,3.6c-0.4,1.8-0.4,3.9-0.4,5.7c0.4,3.6,3.2,6.8,6.8,7.9c3.6,1.1,7.2,0.4,9.7-2.5
				c3.2-3.6,5.7-7.9,7.9-12.2h0.4c1.4,0.4,3.6,0,4.7-0.7l5.4-3.2c0.4-0.4,0.7-0.4,1.4-1.1c0.7-0.7,1.4-1.8,1.4-2.9
				c0-0.4,0-0.4,0.4-0.4c4.7,0.4,9.7,0,14.3-1.4c3.6-1.1,5.7-3.9,6.4-7.5c0.4-3.6-1.1-7.5-4.3-9.7c-1.4-1.1-3.6-1.8-5.4-2.5
				c0.4-2.1,0.4-4.7-0.4-6.8c-1.1-2.9-3.6-5-6.4-6.1c-2.5-0.4-5.7,0-8.2,1.8c-1.4,1.1-2.5,2.1-3.9,3.6c-2.1,2.1-3.9,4.7-5.7,6.8
				c-0.4,0-0.4-0.4-0.4-0.4c-1.8-0.4-3.6,0-5,0.7l-5.7,3.6c-0.7,0.4-0.7,0.7-1.1,0.7c-0.7,1.1-1.4,1.8-1.8,2.9 M297.2,203.7
				c-1.8,1.8-4.7,2.5-7.2,1.4c-2.5-0.7-4.7-3.2-5-5.7c-0.4-1.4,0-3.6,0.4-5c0-0.4,0-0.7,0.4-1.1c0-0.4-0.4-1.1-0.7-1.4
				c-2.5-0.4-4.7-1.4-6.1-2.9c-1.8-1.8-2.5-4.3-2.1-6.8c0.4-2.1,1.8-3.9,3.6-5c3.9-1.8,7.9-3.2,12.5-3.6l0,0c0,1.1,0.4,2.1,1.1,2.9
				l1.4,2.1l-6.1,1.4c-0.4,0-2.1,0.7-1.8,2.5c0.4,0.7,1.1,1.4,1.8,1.4c0.4,0,0.4,0,0.4,0l7.2-2.1l2.5,3.6l-6.4,8.2
				c-0.4,0.7-0.4,2.1,0.4,2.5c0.4,0.4,0.7,0.4,1.1,0.4h0.4c0.4,0,1.1-0.4,1.4-0.7l5.7-7.2l0.4,1.1c0.4,0.7,1.4,1.4,2.1,2.1l0.4,0.4
				C302.9,196.5,300.4,200.4,297.2,203.7z M315.1,185.4l-5.7,3.6c-0.4,0.4-0.7,0.4-2.1,0.4l0,0c-0.4,0-1.1-0.4-1.4-0.4
				c0,0-0.4-0.4-1.1-1.1l-8.2-13.6l-0.7-1.1c0,0-1.1-1.4,1.8-3.2l5.7-3.2c0.7-0.4,1.8-0.7,2.5-0.7c0.4,0,0.7,0.4,0.7,0.7
				c0.4,0.4,0.4,0.4,0.7,1.1l8.6,13.3c0.4,0.4,0.4,1.4,0.4,1.4s0.4,1.1,0,1.4C316.2,184.7,315.8,184.7,315.1,185.4z M338.7,175.4
				c-0.4,2.5-2.1,4.7-4.7,5.7c-4.7,1.4-9,1.8-13.6,1.4c0-0.4,0-0.4,0-0.4c-0.4-1.1-0.4-1.8-1.1-2.9l-1.4-2.5l7.9-1.4
				c1.1-0.4,1.4-1.4,1.4-2.1c0-0.4-0.4-0.7-0.7-1.1c-0.4-0.4-0.7-0.4-1.4-0.4l-9.7,1.8l-1.4-2.9l5.7-5.4c0.4-0.4,0.4-0.7,0.4-1.4
				s-0.4-1.1-0.4-1.4s-1.1-0.7-1.4-0.7s-1.1,0.4-1.4,0.4l-5,5l-0.7-1.1c-0.4-0.7-1.1-1.4-1.8-2.1l0,0c2.5-3.6,5.4-6.8,8.6-9.3
				c1.4-1.4,3.9-1.8,6.1-1.4c2.1,0.7,3.9,2.5,4.7,4.7c0.7,1.8,1.1,3.9,0.4,5.7c0,0.4,0,0.4,0,0.7s0.4,1.1,0.7,1.4
				c1.8,0.4,3.6,1.4,5.4,2.5C338,169.6,339.1,172.5,338.7,175.4L338.7,175.4z"/>
		</g>
	</g>
</g>
<g>
	<path class="st4" d="M321.8,470.4h-3.4V467h3.4V470.4z M314.7,470.2c-1.3-0.2-2.5-0.7-3.7-1.3l1.6-3c0.8,0.5,1.7,0.8,2.7,1
		L314.7,470.2z M325.6,470l-0.9-3.3c0.9-0.2,1.8-0.6,2.6-1.1l1.8,2.8C328,469.1,326.8,469.6,325.6,470z M308,466.5
		c-0.9-0.9-1.7-2-2.2-3.2l3-1.5c0.4,0.9,1,1.6,1.6,2.3L308,466.5z M332,465.8l-2.6-2.2c0.6-0.7,1.1-1.6,1.5-2.4l3.1,1.3
		C333.5,463.7,332.9,464.8,332,465.8z M304.6,459.7c-0.1-0.6-0.1-1.3-0.1-1.9V456h3.4v1.7c0,0.5,0,0.9,0.1,1.4L304.6,459.7z
		 M334.9,458.7l-3.4-0.3c0-0.2,0-0.5,0-0.7v-2.5h3.4v2.5C334.9,458.1,334.9,458.4,334.9,458.7z M307.8,452.7h-3.4v-3.4h3.4V452.7z
		 M334.9,451.9h-3.4v-3.4h3.4V451.9z M307.8,445.9h-3.4v-3.4h3.4V445.9z M334.9,445.1h-3.4v-3.4h3.4V445.1z M307.8,439.2h-3.4v-3.4
		h3.4V439.2z M334.9,438.4h-3.4V435h3.4V438.4z M373.7,438C373.6,438,373.6,438,373.7,438h-3v-3.4l3.3,0l0.1,3.4
		C374,438,373.8,438,373.7,438z M367.1,437.8c-1.3-0.2-2.5-0.5-3.6-1l1.3-3.1c0.9,0.4,1.9,0.7,2.8,0.8L367.1,437.8z M377.9,437.4
		l-0.9-3.2c0.9-0.3,1.9-0.7,2.7-1.2l1.7,2.9C380.2,436.5,379.1,437,377.9,437.4z M360.1,434.9c-1-0.8-1.9-1.7-2.7-2.6l2.6-2.1
		c0.6,0.8,1.3,1.5,2.1,2.1L360.1,434.9z M384.3,433.6l-2.4-2.4c0.7-0.7,1.3-1.5,1.8-2.3l2.9,1.8C386,431.7,385.2,432.7,384.3,433.6z
		 M307.8,432.4h-3.4V429h3.4V432.4z M334.9,431.6h-3.4v-3.4h3.4V431.6z M355.4,429c-0.5-1.2-0.9-2.4-1.1-3.6l3.3-0.6
		c0.2,1,0.5,1.9,0.9,2.8L355.4,429z M388.3,427.2l-3.2-1c0.3-0.9,0.5-1.9,0.5-2.9l3.4,0.2C388.9,424.7,388.6,426,388.3,427.2z
		 M307.8,425.7h-3.4v-3.4h3.4V425.7z M334.9,424.9h-3.4v-3.4h3.4V424.9z M357.4,421.7h-3.4v-3.4h3.4V421.7z M388.9,420h-3.4v-3.4
		h3.4V420z M307.8,418.9h-3.4v-3.4h3.4V418.9z M334.9,418.1h-3.4v-3.4h3.4V418.1z M357.4,415h-3.4v-3.4h3.4V415z M388.9,413.2h-3.4
		v-3.4h3.4V413.2z M307.8,412.2h-3.4v-3.4h3.4V412.2z M334.9,411.3h-3.4V408h3.4V411.3z M357.4,408.2h-3.4v-3.4h3.4V408.2z
		 M388.9,406.5h-3.4v-3.4h3.4V406.5z M307.8,405.4h-3.4V402h3.4V405.4z M334.9,404.6h-3.4v-3.4h3.4V404.6z M357.4,401.5h-3.4v-3.4
		h3.4V401.5z M388.9,399.7h-3.4v-3.4h3.4V399.7z M307.8,398.7h-3.4v-3.4h3.4V398.7z M334.9,397.8h-3.4v-3.4h3.4V397.8z M357.4,394.7
		h-3.4v-3.4h3.4V394.7z M388.9,393h-3.4v-3.4h3.4V393z M307.8,391.9h-3.4v-3.4h3.4V391.9z M334.9,391.1h-3.4v-3.4h3.4V391.1z
		 M430.5,390.6h-1.3v-3.4h1.3c0.6,0,1.2-0.1,1.7-0.2l0.7,3.3C432.2,390.5,431.3,390.6,430.5,390.6z M425.8,390.6
		c-1.3,0-2.6-0.3-3.9-0.7l1.2-3.2c0.9,0.3,1.8,0.5,2.8,0.5L425.8,390.6z M275.8,388.9h-3.4v-3.4h3.4V388.9z M269.1,388.9h-3.4v-3.4
		h3.4V388.9z M262.3,388.9h-3.4v-3.4h3.4V388.9z M255.6,388.9h-3.4v-3.4h3.4V388.9z M248.8,388.9h-3.4v-3.4h3.4V388.9z M242.1,388.9
		h-3.4v-3.4h3.4V388.9z M235.3,388.9h-3.4v-3.4h3.4V388.9z M228.6,388.9h-3.4v-3.4h3.4V388.9z M221.8,388.9h-3.4v-3.4h3.4V388.9z
		 M215.1,388.9h-3.4v-3.4h3.4V388.9z M208.3,388.9h-3.4v-3.4h3.4V388.9z M201.6,388.9h-3.4v-3.4h3.4V388.9z M194.8,388.9h-3.4v-3.4
		h3.4V388.9z M188.1,388.9h-3.4v-3.4h3.4V388.9z M181.3,388.9h-3.4v-3.4h3.4V388.9z M174.5,388.9H173v-3.4h1.5V388.9z M436.6,388.9
		l-1.7-2.9c0.8-0.5,1.5-1.1,2.1-1.8l2.6,2.2C438.7,387.4,437.7,388.2,436.6,388.9z M357.4,388h-3.4v-3.4h3.4V388z M418.6,388
		c-1-0.8-1.9-1.8-2.6-3l2.9-1.8c0.5,0.8,1.1,1.5,1.8,2.1L418.6,388z M388.9,386.2h-3.4v-3.4h3.4V386.2z M279.7,386h-3.4v-3.4h3.4
		V386z M307.8,385.2h-3.4v-3.4h3.4V385.2z M334.9,384.3h-3.4V381h3.4V384.3z M441.5,383l-3.2-1.2c0.3-0.9,0.5-1.8,0.5-2.7l3.4,0.1
		C442.2,380.4,442,381.7,441.5,383z M414.5,381.4c-0.2-0.8-0.3-1.7-0.3-2.5v-1.2h3.4v1.2c0,0.6,0.1,1.2,0.2,1.8L414.5,381.4z
		 M357.4,381.2h-3.4v-3.4h3.4V381.2z M388.9,379.5h-3.4v-3.4h3.4V379.5z M279.7,379.3h-3.4v-3.4h3.4V379.3z M307.8,378.4h-3.4V375
		h3.4V378.4z M334.9,377.6h-3.4v-3.4h3.4V377.6z M442.3,375.7h-3.4v-3.4h3.4V375.7z M357.4,374.5h-3.4v-3.4h3.4V374.5z M417.6,374.3
		h-3.4v-3.4h3.4V374.3z M388.9,372.7h-3.4v-3.4h3.4V372.7z M279.7,372.5h-3.4v-3.4h3.4V372.5z M307.8,371.7h-3.4v-3.4h3.4V371.7z
		 M334.9,370.8h-3.4v-3.4h3.4V370.8z M442.3,369h-3.4v-3.4h3.4V369z M357.4,367.7h-3.4v-3.4h3.4V367.7z M417.6,367.5h-3.4v-1.4
		c0-0.6,0-1.2-0.1-1.7l3.3-0.5c0.1,0.7,0.2,1.5,0.2,2.3V367.5z M388.9,366l-3.4,0c0-1.3,0.2-2.6,0.6-3.8l3.2,1
		C389.1,364.1,389,365,388.9,366z M279.7,365.8h-3.4v-3.4h3.4V365.8z M307.8,364.9h-3.4v-3.4h3.4V364.9z M334.9,364.1h-3.4v-3.4h3.4
		V364.1z M442.3,362.2h-3.4v-3.4h3.4V362.2z M413.3,361.7c-0.4-0.9-0.9-1.7-1.6-2.4l2.5-2.2c0.8,1,1.5,2,2.1,3.2L413.3,361.7z
		 M357.4,361h-3.4v-3.4h3.4V361z M390.6,360.5l-2.8-1.8c0.7-1.1,1.5-2.1,2.5-2.9l2.3,2.5C391.7,358.9,391.1,359.7,390.6,360.5z
		 M279.7,359h-3.4v-3.4h3.4V359z M307.8,358.1h-3.4v-3.4h3.4V358.1z M334.9,357.3h-3.4V354h3.4V357.3z M409.5,357.3
		c-0.8-0.5-1.7-1-2.6-1.2l1-3.2c1.2,0.4,2.4,0.9,3.5,1.6L409.5,357.3z M394.9,356.7l-1.5-3c1.2-0.6,2.4-1,3.6-1.2l0.6,3.3
		C396.7,355.9,395.7,356.2,394.9,356.7z M404,355.6l-3.3,0v-3.4l3.4,0L404,355.6z M442.3,355.4h-3.4v-3.4h3.4V355.4z M357.4,354.2
		h-3.4v-3.4h3.4V354.2z M279.7,352.3h-3.4v-3.4h3.4V352.3z M307.8,351.4h-3.4V348h3.4V351.4z M334.9,350.6h-3.4v-3.4h3.4V350.6z
		 M442.3,348.7h-3.4v-3.4h3.4V348.7z M357.4,347.5h-3.4v-3.4h3.4V347.5z M279.7,345.5h-3.4v-3.4h3.4V345.5z M307.8,344.6h-3.4v-3.4
		h3.4V344.6z M334.9,343.8h-3.4v-3.4h3.4V343.8z M442.3,341.9h-3.4v-3.4h3.4V341.9z M357.4,340.7h-3.4v-3.4h3.4V340.7z M279.7,338.9
		l-3.4-0.4c0.1-1.3,0.5-2.6,1-3.8l3.1,1.4C280.1,337.1,279.8,338,279.7,338.9z M304.3,338.2c-0.2-0.9-0.5-1.8-1-2.7l3-1.6
		c0.6,1.1,1.1,2.4,1.3,3.7L304.3,338.2z M334.9,337.1h-3.4v-0.5c0-1.1,0.2-2.3,0.6-3.4l3.2,1.1c-0.2,0.7-0.4,1.5-0.4,2.3V337.1z
		 M353.8,334.5c-0.3-0.9-0.7-1.7-1.3-2.4l2.6-2.1c0.9,1.1,1.5,2.2,1.9,3.5L353.8,334.5z M282,333.9l-2.5-2.3c0.9-1,1.9-1.8,3.1-2.4
		l1.6,2.9C283.4,332.6,282.7,333.2,282,333.9z M301.6,333.3c-0.7-0.6-1.5-1.2-2.4-1.6l1.4-3.1c1.2,0.5,2.3,1.3,3.2,2.2L301.6,333.3z
		 M336.7,332l-2.5-2.2c0.9-1,1.9-1.9,3.2-2.5l1.5,3C338,330.7,337.3,331.3,336.7,332z M286.9,331.1l-0.6-3.3
		c0.8-0.1,1.5-0.2,2.3-0.2h1.4v3.4h-1.4C288,331,287.4,331,286.9,331.1z M296.5,331c-0.3,0-0.6-0.1-1-0.1h-2.2v-3.4h2.2
		c0.4,0,0.9,0,1.3,0.1L296.5,331z M350.4,330.4c-0.8-0.4-1.7-0.7-2.6-0.8l0.4-3.4c1.3,0.2,2.6,0.6,3.8,1.2L350.4,330.4z
		 M341.4,329.6l-0.3-3.4c0.3,0,0.6,0,0.9,0h2.7v3.4H342C341.8,329.5,341.6,329.5,341.4,329.6z"/>
</g>
<g id="Livello_2_1_">
	<g id="Layer_1_1_">
		<path class="st11" d="M475.4,246.1v23c0,1.1-0.5,2.1-1.3,2.7V262c0-5.2-1.3-10.3-3.8-14.8c1.1-1.3,2-2.8,2.6-4.4
			C474.4,243.2,475.4,244.6,475.4,246.1z"/>
		<path class="st12" d="M408.4,269.1v-23c0-1.9,1.5-3.4,3.4-3.4h0.3h0.3l0,0l0.5-0.4l0.4-0.3l0.3-0.3l0.2-0.3c0-0.1,0-0.3,0-0.4
			c0-0.1,0-0.3,0-0.4c0-0.1,0-0.1,0-0.2c0-0.1,0-0.2,0-0.3c0-0.1,0-0.2,0-0.3c-1.5-6.2,2.4-12.5,8.6-14c0.9-0.2,1.9-0.3,2.8-0.3h30
			c5.3,0,10.4-2.2,14.2-6v17.6c0,6.4-5.2,11.6-11.6,11.6h-32.6c-2.9,0-5.7-1.1-7.8-3h-0.2h-0.2l-0.3-0.4h-0.4h-0.4h-0.4h-0.4
			l-0.4,0.2l-0.3,0.2h-0.2c0,0.1,0,0.1,0,0.2l0,0c-3,4.9-4.6,10.5-4.6,16.2v9.8C408.8,271.1,408.3,270.1,408.4,269.1z"/>
		<path class="st4" d="M414.2,279.7v-4.5l0,0l0,0V262c0-3.9,0.9-7.7,2.6-11.2c2.6,1.6,5.5,2.4,8.6,2.4h32.6c3.2,0,6.4-1,9-2.8
			c1.8,3.6,2.7,7.5,2.7,11.5v17.7c0,9.7-5.3,18.7-13.8,23.4l0,0c-3.9,2.2-8.4,3.4-12.9,3.4h-2.1c-4.5,0-9-1.2-12.9-3.4l0,0
			C419.5,298.4,414.2,289.5,414.2,279.7z"/>
		<path class="st3" d="M474.6,322.2l-20.2-6.9V309c1.6-0.6,3.1-1.4,4.6-2.3c9.5-5.7,15.3-15.9,15.3-26.9v-2.7c3.5-1,5.9-4.3,5.9-7.9
			v-11.5l0,0v-11.5c0-3.8-2.5-7-6.1-8c0-0.4,0-0.8,0-1.2v-23.4c-0.1-1.3-1.2-2.3-2.5-2.2c-0.5,0-1,0.2-1.4,0.6l-4,4.1
			c-2.8,2.9-6.7,4.6-10.8,4.6h-30.1c-9,0-16.2,7.3-16.2,16.3c0,0.5,0,0.9,0,1.4c-3.2,1.2-5.4,4.3-5.3,7.8v11.5l0,0v11.5
			c0,3.6,2.4,6.8,5.9,7.9v2.7c-0.1,11,5.8,21.3,15.3,26.9c1.9,0.8,3.8,1.5,5.8,2.1v6.7l-20.2,6.9c-6.4,2.2-10.8,8.2-10.8,15
			c0,0.9,0.7,1.6,1.5,1.6c0,0,0,0,0,0h82.8c0.4,0,0.8-0.2,1.1-0.4c0.3-0.3,0.4-0.7,0.4-1.1C485.5,330.5,481.1,324.4,474.6,322.2z
			 M451.3,309.9v6.6l0,0c0,2.8-4.5,4.3-8.8,4.3s-8.8-1.5-8.8-4.3v-6.9C439.4,311.2,445.5,311.3,451.3,309.9z M402.7,335.7
			c0.6-4.9,4-9.1,8.7-10.7l19.7-6.6c0.7,1.7,2,3,3.7,3.8c2.4,1.1,5.1,1.7,7.8,1.6c4.9,0,10.1-1.7,11.5-5.4l19.6,6.6
			c4.7,1.6,8.1,5.7,8.7,10.7H402.7z"/>
		<path class="st4" d="M475.4,246.1v23c0,1.1-0.5,2.1-1.3,2.7V262c0-5.2-1.3-10.3-3.8-14.8c1.1-1.3,2-2.8,2.6-4.4
			C474.4,243.2,475.4,244.6,475.4,246.1z"/>
		<path class="st4" d="M408.4,269.1v-23c0-1.9,1.5-3.4,3.4-3.4h0.3h0.3l0,0l0.5-0.4l0.4-0.3l0.3-0.3l0.2-0.3c0-0.1,0-0.3,0-0.4
			c0-0.1,0-0.3,0-0.4c0-0.1,0-0.1,0-0.2c0-0.1,0-0.2,0-0.3c0-0.1,0-0.2,0-0.3c-1.5-6.2,2.4-12.5,8.6-14c0.9-0.2,1.9-0.3,2.8-0.3h30
			c5.3,0,10.4-2.2,14.2-6v17.6c0,6.4-5.2,11.6-11.6,11.6h-32.6c-2.9,0-5.7-1.1-7.8-3h-0.2h-0.2l-0.3-0.4h-0.4h-0.4h-0.4h-0.4
			l-0.4,0.2l-0.3,0.2h-0.2c0,0.1,0,0.1,0,0.2l0,0c-3,4.9-4.6,10.5-4.6,16.2v9.8C408.8,271.1,408.3,270.1,408.4,269.1z"/>
		<path class="st4" d="M414.2,279.7v-4.5l0,0l0,0V262c0-3.9,0.9-7.7,2.6-11.2c2.6,1.6,5.5,2.4,8.6,2.4h32.6c3.2,0,6.4-1,9-2.8
			c1.8,3.6,2.7,7.5,2.7,11.5v17.7c0,9.7-5.3,18.7-13.8,23.4l0,0c-3.9,2.2-8.4,3.4-12.9,3.4h-2.1c-4.5,0-9-1.2-12.9-3.4l0,0
			C419.5,298.4,414.2,289.5,414.2,279.7z"/>
		<path class="st6" d="M402.7,335.7c0.6-4.9,4-9.1,8.7-10.7l19.7-6.6c0.7,1.7,2,3,3.7,3.8c2.4,1.1,5.1,1.7,7.8,1.6
			c4.9,0,10.1-1.7,11.5-5.4l19.6,6.6c4.7,1.6,8.1,5.7,8.7,10.7H402.7z"/>
	</g>
</g>
<g id="Layer_1_2_">
	<g id="XMLID_1_">
		<g>
			<path class="st13" d="M200.2,408.2c0,1-0.7,1.5-1.5,1.5h-72.3c-0.7,0-1.2-0.5-1.2-1.2c-0.2-5.9,3.7-11.1,9.4-13.1l17.8-5.9v-9.1
				c-6.2-3-10.6-8.4-12.6-15c-4.4-7.4-7.4-14.1-7.4-21.5c0-16,12.1-26.9,29.9-26.9c18.5,0,30.8,10.6,30.8,26.6
				c0,8.2-3,14.6-7.4,21.7c-1.7,6.7-6.4,12.1-12.6,15v9.1l17.5,5.9c2.8,1,5.2,2.8,6.9,5C199.2,402.7,200.2,405.4,200.2,408.2z
				 M127.9,407.2h69.9c-0.5-4.2-3.5-7.6-7.7-9.1l-17-5.7c-1.2,3.2-5.9,4.7-10.1,4.7c-2.5,0-4.7-0.5-6.9-1.5
				c-1.5-0.5-2.7-1.7-3.2-3.2l-17.3,5.7C131.3,399.3,128.4,403,127.9,407.2z M187.1,358.4c2.2-4.4,3.7-9.4,3.7-14.6
				c0-16.8-14.1-24.2-28.1-24.2c-16.5,0-27.4,9.6-27.4,24.2c0,4.9,1.5,9.6,3.7,14.1v-8.1c0-3.7,0.5-7.6,1.7-11.4v-0.3
				c0,0,0,0,0.3-0.2h0.5h0.3h0.2h0.3h0.3l0.5-0.3c6.2,4.2,13.6,6.4,21,6.4l-3.7-7.4v-0.2v-0.3v-0.3v-0.2v-0.3l0.2-0.3l0.3-0.2h0.3
				h0.2h0.3h0.2h0.3c9.9,4.4,16.3,5.2,20.7,2.5h0.2h0.3h0.3h0.5c0.5,0,0.7,0.3,1,0.7c1.5,4,2.2,7.9,2.2,11.8V358.4z M183.9,358.9
				v-9.1c0-3.2-0.5-6.4-1.5-9.4c-2,0.7-3.9,1.2-6.2,1.2c-4.2-0.2-8.2-1-12.1-2.7l3.2,6.2v0.3c0,0.3,0,0.3,0,0.3c0,0.2,0,0.2,0,0.5
				c-0.2,0-0.2,0.3-0.2,0.3v0.2c-0.3,0-0.3,0.3-0.5,0.3c-0.3,0.3-0.3,0.3-0.5,0.3c-1,0-1.7,0-2.7,0c-7.4,0-14.6-2.2-20.7-6.2
				c-0.7,3-1.2,5.9-1.2,8.9v9.1c-0.3,11.8,9.6,21.2,21.2,21.2C174.3,380.1,183.9,370.7,183.9,358.9z M170.3,390.4v-8.9
				c-2,0.8-4.2,1.3-6.4,1.3c-0.4,0-0.9,0-1.3-0.1c-2.7,0-5.2-0.5-7.6-1.2v8.9c0,2.5,3.9,3.7,7.6,3.7c1.9,0,3.8-0.3,5.2-0.9
				C169.3,392.6,170.3,391.7,170.3,390.4z"/>
			<path class="st4" d="M190.8,343.8c0,5.2-1.5,10.1-3.7,14.6V350c0-3.9-0.7-7.9-2.2-11.8c-0.3-0.5-0.5-0.7-1-0.7h-0.5h-0.3h-0.3
				h-0.2c-4.4,2.7-10.9,2-20.7-2.5h-0.3h-0.2h-0.3h-0.2h-0.3l-0.3,0.2l-0.2,0.3v0.3v0.2v0.3v0.3v0.2l3.7,7.4c-7.4,0-14.8-2.2-21-6.4
				l-0.5,0.3h-0.3h-0.3h-0.2h-0.3H141c-0.3,0.2-0.3,0.2-0.3,0.2v0.3c-1.2,3.7-1.7,7.6-1.7,11.4v8.1c-2.2-4.4-3.7-9.1-3.7-14.1
				c0-14.6,10.9-24.2,27.4-24.2C176.7,319.6,190.8,327,190.8,343.8z"/>
			<path class="st4" d="M183.9,349.7v9.1c0,11.8-9.6,21.2-21.2,21.2c-11.6,0-21.5-9.4-21.2-21.2v-9.1c0-3,0.5-5.9,1.2-8.9
				c6.2,4,13.3,6.2,20.7,6.2c1,0,1.7,0,2.7,0c0.3,0,0.3,0,0.5-0.3c0.2,0,0.2-0.3,0.5-0.3v-0.2c0,0,0-0.3,0.2-0.3c0-0.3,0-0.3,0-0.5
				c0,0,0,0,0-0.3V345l-3.2-6.2c3.9,1.7,7.9,2.5,12.1,2.7c2.2,0,4.2-0.5,6.2-1.2C183.4,343.3,183.9,346.5,183.9,349.7z"/>
			<path class="st4" d="M170.3,381.6v8.9c0,1.2-1,2.2-2.4,2.8c-1.4,0.6-3.4,0.9-5.2,0.9c-3.7,0-7.6-1.2-7.6-3.7v-8.9
				c2.5,0.7,4.9,1.2,7.6,1.2c0.4,0,0.9,0.1,1.3,0.1C166.1,382.9,168.3,382.4,170.3,381.6z"/>
		</g>
		<g>
		</g>
	</g>
	<path class="st14" d="M127.9,407.2c0.5-4.2,3.5-7.9,7.6-9.1l17.3-5.7c0.5,1.5,1.7,2.7,3.2,3.2c2.2,1,4.4,1.5,6.9,1.5
		c4.2,0,8.9-1.5,10.1-4.7l17,5.7c4.2,1.5,7.2,4.9,7.7,9.1H127.9L127.9,407.2z"/>
</g>
<g>
	<g>
		<path class="st15" d="M560.2,169.7l-4.9-8.5h-12.6v-32.1h70.5v32.1h-48L560.2,169.7z M546,157.8h11.2l3,5.1l3-5.1h46.6v-25.3H546
			V157.8z"/>
	</g>
	<g>
		<path class="st15" d="M557.1,143.6h-14.5v-14.5h14.5V143.6z M546,140.2h7.7v-7.7H546V140.2z"/>
	</g>
	<g>
		<rect x="563.1" y="137.2" class="st15" width="34.9" height="3.4"/>
	</g>
	<g>
		<rect x="563.1" y="142.6" class="st15" width="34.9" height="3.4"/>
	</g>
	<g>
		<rect x="563.1" y="147.9" class="st15" width="34.9" height="3.4"/>
	</g>
</g>
<g>
	<g>
		<path class="st15" d="M364.8,85.8l-1-0.1c-2.6-0.3-5.2-1-7.6-2.2l-1-0.5l0.2-4.1l-4,1.3l-0.7-0.7c-1.8-1.8-3.3-3.9-4.3-6.3l-0.5-1
			l3.1-3.4l-4.5-1.9l-0.1-1c0-0.5-0.1-1.1-0.1-1.6c0-1.9,0.3-3.8,0.8-5.6l0.3-1.1l5.2-0.6l-2.5-4.8l0.6-0.9c1.4-1.9,3.2-3.5,5.1-4.8
			l0.9-0.6l4.7,3l1.2-5.4l1.1-0.2c2.3-0.4,4.6-0.5,7-0.2l1.1,0.1l1.6,5.2l4.2-3.2l1,0.6c2.1,1.2,4,2.8,5.6,4.6L383,51l-1.9,4.6
			l4.8,0.2l0.4,1.1c0.9,2.4,1.3,4.8,1.3,7.4l0,1.1l-0.9,0.5l-3,1.5l3.1,2.8l-0.4,1c-0.9,2.5-2.1,4.8-3.8,6.8l-0.7,0.8L378,78
			l0.5,3.8l-0.9,0.6c-2.3,1.5-4.7,2.5-7.4,3l-1,0.2l-2.3-3L364.8,85.8z M358.8,80.9c1.4,0.6,2.9,1,4.4,1.3l3.5-5.6l3.9,5.2
			c1.5-0.4,2.9-1,4.3-1.7l-0.9-6.5l6.5,1.5c0.9-1.2,1.6-2.5,2.2-3.9l-5-4.6l6.4-3.3c-0.1-1.4-0.3-2.8-0.7-4.2l-7.4-0.3l3-7.1
			c-0.9-1-1.9-1.8-3-2.5l-6.3,4.8l-2.4-7.8c-1.3-0.1-2.5-0.1-3.8,0.1l-1.8,8l-6.8-4.4c-1,0.8-1.9,1.6-2.8,2.6l3.7,7.1l-7.7,1
			c-0.3,1.2-0.4,2.4-0.4,3.7c0,0.1,0,0.2,0,0.3l7,2.9l-4.9,5.3c0.7,1.3,1.5,2.5,2.5,3.5l6.7-2.1L358.8,80.9z"/>
	</g>
	<g>
		<path class="st15" d="M366,71.4c-4,0-7.2-3.2-7.2-7.2c0-4,3.2-7.2,7.2-7.2s7.2,3.2,7.2,7.2C373.1,68.2,369.9,71.4,366,71.4z
			 M366,60.4c-2.1,0-3.8,1.7-3.8,3.8c0,2.1,1.7,3.8,3.8,3.8s3.8-1.7,3.8-3.8C369.8,62.1,368.1,60.4,366,60.4z"/>
	</g>
</g>
<g>
	<g>
		<g>
			<g>
				<g>
					<g>
						<g>
							<path class="st3" d="M311.3,105h-11.1c-0.9,0-1.7-0.8-1.7-1.7c0-0.9,0.8-1.7,1.7-1.7h11.1c0.9,0,1.7,0.8,1.7,1.7
								C313,104.2,312.3,105,311.3,105z"/>
						</g>
					</g>
				</g>
			</g>
		</g>
		<g>
			<g>
				<g>
					<g>
						<g>
							<path class="st3" d="M305.8,110.5c-0.9,0-1.7-0.8-1.7-1.7V97.7c0-0.9,0.8-1.7,1.7-1.7c0.9,0,1.7,0.8,1.7,1.7v11.1
								C307.4,109.8,306.7,110.5,305.8,110.5z"/>
						</g>
					</g>
				</g>
			</g>
		</g>
	</g>
</g>
<g>
	<g>
		<g>
			<g>
				<g>
					<g>
						<g>
							<path class="st3" d="M178.6,182.8h-11.1c-0.9,0-1.7-0.8-1.7-1.7c0-0.9,0.8-1.7,1.7-1.7h11.1c0.9,0,1.7,0.8,1.7,1.7
								C180.3,182,179.5,182.8,178.6,182.8z"/>
						</g>
					</g>
				</g>
			</g>
		</g>
		<g>
			<g>
				<g>
					<g>
						<g>
							<path class="st3" d="M173,188.4c-0.9,0-1.7-0.8-1.7-1.7v-11.1c0-0.9,0.8-1.7,1.7-1.7c0.9,0,1.7,0.8,1.7,1.7v11.1
								C174.7,187.6,174,188.4,173,188.4z"/>
						</g>
					</g>
				</g>
			</g>
		</g>
	</g>
</g>
<g>
	<g>
		<g>
			<g>
				<g>
					<g>
						<g>
							<path class="st3" d="M240.1,464.8h-11.1c-0.9,0-1.7-0.8-1.7-1.7c0-0.9,0.8-1.7,1.7-1.7h11.1c0.9,0,1.7,0.8,1.7,1.7
								C241.8,464.1,241,464.8,240.1,464.8z"/>
						</g>
					</g>
				</g>
			</g>
		</g>
		<g>
			<g>
				<g>
					<g>
						<g>
							<path class="st3" d="M234.5,470.4c-0.9,0-1.7-0.8-1.7-1.7v-11.1c0-0.9,0.8-1.7,1.7-1.7c0.9,0,1.7,0.8,1.7,1.7v11.1
								C236.2,469.6,235.4,470.4,234.5,470.4z"/>
						</g>
					</g>
				</g>
			</g>
		</g>
	</g>
</g>
<g>
	<g>
		<g>
			<g>
				<g>
					<g>
						<g>
							<path class="st3" d="M611.4,270.8h-11.1c-0.9,0-1.7-0.8-1.7-1.7c0-0.9,0.8-1.7,1.7-1.7h11.1c0.9,0,1.7,0.8,1.7,1.7
								C613.1,270.1,612.3,270.8,611.4,270.8z"/>
						</g>
					</g>
				</g>
			</g>
		</g>
		<g>
			<g>
				<g>
					<g>
						<g>
							<path class="st3" d="M605.8,276.4c-0.9,0-1.7-0.8-1.7-1.7v-11.1c0-0.9,0.8-1.7,1.7-1.7c0.9,0,1.7,0.8,1.7,1.7v11.1
								C607.5,275.7,606.8,276.4,605.8,276.4z"/>
						</g>
					</g>
				</g>
			</g>
		</g>
	</g>
</g>
<g>
	<path class="st4" d="M216.8,255.7c-6.4,0-11.6-5.2-11.6-11.6s5.2-11.6,11.6-11.6s11.6,5.2,11.6,11.6S223.2,255.7,216.8,255.7z"/>
	<path class="st3" d="M216.8,233.5c5.8,0,10.6,4.8,10.6,10.6s-4.8,10.6-10.6,10.6c-5.8,0-10.6-4.8-10.6-10.6S211,233.5,216.8,233.5
		 M216.8,231.5c-7,0-12.6,5.6-12.6,12.6c0,7,5.6,12.6,12.6,12.6c7,0,12.6-5.6,12.6-12.6C229.4,237.1,223.8,231.5,216.8,231.5
		L216.8,231.5z"/>
</g>
<g>
	<path class="st4" d="M216.8,255.7c-6.4,0-11.6-5.2-11.6-11.6s5.2-11.6,11.6-11.6s11.6,5.2,11.6,11.6S223.2,255.7,216.8,255.7z"/>
	<path class="st3" d="M216.8,233.5c5.8,0,10.6,4.8,10.6,10.6s-4.8,10.6-10.6,10.6c-5.8,0-10.6-4.8-10.6-10.6S211,233.5,216.8,233.5
		 M216.8,231.5c-7,0-12.6,5.6-12.6,12.6c0,7,5.6,12.6,12.6,12.6c7,0,12.6-5.6,12.6-12.6C229.4,237.1,223.8,231.5,216.8,231.5
		L216.8,231.5z"/>
</g>
<g>
	<path class="st4" d="M492.5,444.5c-6.4,0-11.6-5.2-11.6-11.6s5.2-11.6,11.6-11.6s11.6,5.2,11.6,11.6S498.9,444.5,492.5,444.5z"/>
	<path class="st3" d="M492.5,422.2c5.8,0,10.6,4.8,10.6,10.6s-4.8,10.6-10.6,10.6s-10.6-4.8-10.6-10.6S486.6,422.2,492.5,422.2
		 M492.5,420.2c-7,0-12.6,5.6-12.6,12.6c0,7,5.6,12.6,12.6,12.6c7,0,12.6-5.6,12.6-12.6C505.1,425.9,499.4,420.2,492.5,420.2
		L492.5,420.2z"/>
</g>
<g>
	<path class="st15" d="M102.9,88.3c-5.1,0-9.3-4.2-9.3-9.3c0-5.1,4.2-9.3,9.3-9.3c5.1,0,9.3,4.2,9.3,9.3
		C112.2,84.1,108,88.3,102.9,88.3z M102.9,73.1c-3.3,0-5.9,2.7-5.9,5.9c0,3.3,2.7,5.9,5.9,5.9c3.3,0,5.9-2.7,5.9-5.9
		C108.8,75.7,106.2,73.1,102.9,73.1z"/>
</g>
<g>
	<path class="st15" d="M542.6,236c-5.1,0-9.3-4.2-9.3-9.3s4.2-9.3,9.3-9.3s9.3,4.2,9.3,9.3S547.7,236,542.6,236z M542.6,220.8
		c-3.3,0-5.9,2.7-5.9,5.9s2.7,5.9,5.9,5.9s5.9-2.7,5.9-5.9S545.9,220.8,542.6,220.8z"/>
</g>
<g>
	<g>
		<g>
			<g>
				<g>
					<g>
						<g>
							<path class="st3" d="M65.5,365.1H54.3c-0.9,0-1.7-0.8-1.7-1.7c0-0.9,0.8-1.7,1.7-1.7h11.1c0.9,0,1.7,0.8,1.7,1.7
								C67.2,364.3,66.4,365.1,65.5,365.1z"/>
						</g>
					</g>
				</g>
			</g>
		</g>
		<g>
			<g>
				<g>
					<g>
						<g>
							<path class="st3" d="M59.9,370.7c-0.9,0-1.7-0.8-1.7-1.7v-11.1c0-0.9,0.8-1.7,1.7-1.7c0.9,0,1.7,0.8,1.7,1.7V369
								C61.6,369.9,60.8,370.7,59.9,370.7z"/>
						</g>
					</g>
				</g>
			</g>
		</g>
	</g>
</g>
</svg>
